<svg width="127" height="19" viewBox="0 0 127 19" fill="none" xmlns="http://www.w3.org/2000/svg">
<path d="M15.04 12.2871H11.5391C11.5 12.8242 11.3877 13.2832 11.2021 13.6641C11.0166 14.0449 10.7725 14.3623 10.4697 14.6162C10.1475 14.8994 9.75684 15.1094 9.29785 15.2461C8.84863 15.373 8.35547 15.4365 7.81836 15.4365C7.18359 15.4365 6.62207 15.3096 6.13379 15.0557C5.64551 14.8018 5.23535 14.4551 4.90332 14.0156C4.58105 13.5762 4.33203 13.0635 4.15625 12.4775C3.99023 11.8818 3.90234 11.2373 3.89258 10.5439V8.40527C3.90234 7.73145 3.99023 7.10156 4.15625 6.51562C4.33203 5.91992 4.58594 5.40234 4.91797 4.96289C5.25 4.52344 5.65527 4.17676 6.13379 3.92285C6.62207 3.65918 7.17871 3.52734 7.80371 3.52734C8.40918 3.52734 8.94141 3.60547 9.40039 3.76172C9.85938 3.91797 10.25 4.14746 10.5723 4.4502C10.8555 4.72363 11.0752 5.05078 11.2314 5.43164C11.3975 5.80273 11.5 6.23242 11.5391 6.7207H15.0693C14.9717 5.75391 14.7275 4.89941 14.3369 4.15723C13.9463 3.40527 13.4385 2.77051 12.8135 2.25293C12.1885 1.74512 11.4512 1.35938 10.6016 1.0957C9.75195 0.832031 8.81934 0.700195 7.80371 0.700195C6.71973 0.700195 5.72363 0.895508 4.81543 1.28613C3.91699 1.66699 3.14062 2.2041 2.48633 2.89746C1.82227 3.59082 1.30469 4.40625 0.933594 5.34375C0.572266 6.28125 0.391602 7.30664 0.391602 8.41992V10.5439C0.391602 11.6377 0.567383 12.6533 0.918945 13.5908C1.28027 14.5283 1.7832 15.3438 2.42773 16.0371C3.07227 16.7207 3.84863 17.2578 4.75684 17.6484C5.6748 18.0391 6.69531 18.2344 7.81836 18.2344C8.75586 18.2344 9.64453 18.1123 10.4844 17.8682C11.334 17.624 12.0811 17.2578 12.7256 16.7695C13.3701 16.2715 13.8975 15.6514 14.3076 14.9092C14.7178 14.167 14.9619 13.293 15.04 12.2871ZM33.7713 10.5146V8.44922C33.7615 7.39453 33.5857 6.39844 33.2439 5.46094C32.9119 4.51367 32.4334 3.68359 31.8084 2.9707C31.1736 2.27734 30.4021 1.72559 29.4939 1.31543C28.5955 0.905273 27.5799 0.700195 26.4471 0.700195C25.3045 0.700195 24.284 0.905273 23.3855 1.31543C22.4871 1.72559 21.7254 2.28223 21.1004 2.98535C20.4656 3.69824 19.9822 4.52344 19.6502 5.46094C19.3182 6.39844 19.1521 7.39453 19.1521 8.44922V10.5146C19.1521 11.5693 19.3182 12.5654 19.6502 13.5029C19.992 14.4404 20.4803 15.2559 21.115 15.9492C21.74 16.6523 22.5018 17.209 23.4002 17.6191C24.3084 18.0293 25.3338 18.2344 26.4764 18.2344C27.6092 18.2344 28.6248 18.0293 29.5232 17.6191C30.4217 17.209 31.1834 16.6572 31.8084 15.9639C32.4432 15.2607 32.9266 14.4404 33.2586 13.5029C33.5906 12.5654 33.7615 11.5693 33.7713 10.5146ZM30.2703 8.41992V10.5146C30.2605 11.1396 30.1824 11.75 30.0359 12.3457C29.8895 12.9316 29.6648 13.4541 29.3621 13.9131C29.0594 14.3721 28.6688 14.7432 28.1902 15.0264C27.7117 15.2998 27.1404 15.4365 26.4764 15.4365C25.7928 15.4365 25.2117 15.2998 24.7332 15.0264C24.2547 14.7432 23.8641 14.3721 23.5613 13.9131C23.2488 13.4541 23.0193 12.9316 22.8729 12.3457C22.7361 11.75 22.6629 11.1396 22.6531 10.5146V8.41992C22.6629 7.80469 22.7361 7.2041 22.8729 6.61816C23.0096 6.02246 23.2342 5.49512 23.5467 5.03613C23.8494 4.58691 24.2352 4.22559 24.7039 3.95215C25.1824 3.66895 25.7635 3.52734 26.4471 3.52734C27.1111 3.52734 27.6824 3.66406 28.1609 3.9375C28.6395 4.21094 29.035 4.57715 29.3475 5.03613C29.66 5.48535 29.8895 6.00781 30.0359 6.60352C30.1824 7.18945 30.2605 7.79492 30.2703 8.41992ZM51.1988 18V0.93457H47.7564L47.8004 12.2725L41.8971 0.93457H38.484V18H41.9117L41.8678 6.67676L47.8004 18H51.1988ZM71.351 3.77637V0.93457H55.6918V3.77637H61.7123V18H65.2572V3.77637H71.351ZM85.3801 14.4111L86.757 18H90.302L83.5051 0.93457H80.1945L73.383 18H76.9572L78.3195 14.4111H85.3801ZM79.3156 11.7451L81.6008 5.70996L81.8352 5.09473L82.0842 5.72461L84.3693 11.7451H79.3156ZM108.286 3.77637V0.93457H92.627V3.77637H98.6475V18H102.192V3.77637H108.286ZM126.109 10.5146V8.44922C126.099 7.39453 125.924 6.39844 125.582 5.46094C125.25 4.51367 124.771 3.68359 124.146 2.9707C123.512 2.27734 122.74 1.72559 121.832 1.31543C120.933 0.905273 119.918 0.700195 118.785 0.700195C117.642 0.700195 116.622 0.905273 115.723 1.31543C114.825 1.72559 114.063 2.28223 113.438 2.98535C112.804 3.69824 112.32 4.52344 111.988 5.46094C111.656 6.39844 111.49 7.39453 111.49 8.44922V10.5146C111.49 11.5693 111.656 12.5654 111.988 13.5029C112.33 14.4404 112.818 15.2559 113.453 15.9492C114.078 16.6523 114.84 17.209 115.738 17.6191C116.646 18.0293 117.672 18.2344 118.814 18.2344C119.947 18.2344 120.963 18.0293 121.861 17.6191C122.76 17.209 123.521 16.6572 124.146 15.9639C124.781 15.2607 125.264 14.4404 125.596 13.5029C125.929 12.5654 126.099 11.5693 126.109 10.5146ZM122.608 8.41992V10.5146C122.598 11.1396 122.52 11.75 122.374 12.3457C122.227 12.9316 122.003 13.4541 121.7 13.9131C121.397 14.3721 121.007 14.7432 120.528 15.0264C120.05 15.2998 119.478 15.4365 118.814 15.4365C118.131 15.4365 117.55 15.2998 117.071 15.0264C116.593 14.7432 116.202 14.3721 115.899 13.9131C115.587 13.4541 115.357 12.9316 115.211 12.3457C115.074 11.75 115.001 11.1396 114.991 10.5146V8.41992C115.001 7.80469 115.074 7.2041 115.211 6.61816C115.347 6.02246 115.572 5.49512 115.885 5.03613C116.187 4.58691 116.573 4.22559 117.042 3.95215C117.52 3.66895 118.101 3.52734 118.785 3.52734C119.449 3.52734 120.02 3.66406 120.499 3.9375C120.977 4.21094 121.373 4.57715 121.685 5.03613C121.998 5.48535 122.227 6.00781 122.374 6.60352C122.52 7.18945 122.598 7.79492 122.608 8.41992Z" fill="#EFEFEF"/>
</svg>
