<svg width="75" height="12" viewBox="0 0 75 12" fill="none" xmlns="http://www.w3.org/2000/svg">
<path d="M8.55078 7.04883V5.1543H3.08203V2.51758H9.43945V0.623047H0.728516V12H9.42969V10.125H3.08203V7.04883H8.55078ZM22.1875 12V0.623047H19.8926L19.9219 8.18164L15.9863 0.623047H13.7109V12H15.9961L15.9668 4.45117L19.9219 12H22.1875ZM30.9219 8.91406L28.1094 0.623047H25.6289L29.916 12H32.3184L36.6152 0.623047H34.1348L31.3125 8.92383L31.1172 9.71484L30.9219 8.91406ZM40.0664 0.632812V2.57617H42.8984V10.0664H40.0664V12H48.1523V10.0664H45.2422V2.57617H48.1523V0.632812H40.0664ZM59.3867 9.60742L60.3047 12H62.668L58.1367 0.623047H55.9297L51.3887 12H53.7715L54.6797 9.60742H59.3867ZM55.3438 7.83008L56.8672 3.80664L57.0234 3.39648L57.1895 3.81641L58.7129 7.83008H55.3438ZM70.0547 7.84961L72.3789 12H74.8887V11.8926L72.1934 7.24414C72.5124 7.10091 72.8086 6.9349 73.082 6.74609C73.3555 6.55729 73.5898 6.33594 73.7852 6.08203C73.987 5.83464 74.14 5.54818 74.2441 5.22266C74.3548 4.89062 74.4102 4.50651 74.4102 4.07031C74.4102 3.47786 74.293 2.9668 74.0586 2.53711C73.8307 2.10742 73.515 1.74935 73.1113 1.46289C72.7077 1.18294 72.2324 0.974609 71.6855 0.837891C71.1452 0.694661 70.5625 0.623047 69.9375 0.623047H65.4844V12H67.8184V7.84961H70.0547ZM67.8184 5.97461V2.52734H69.9375C70.237 2.53385 70.5137 2.56966 70.7676 2.63477C71.028 2.69987 71.2526 2.80078 71.4414 2.9375C71.6432 3.07422 71.7995 3.25326 71.9102 3.47461C72.0208 3.69596 72.0762 3.95964 72.0762 4.26562C72.0762 4.55859 72.0208 4.8125 71.9102 5.02734C71.7995 5.23568 71.6497 5.4082 71.4609 5.54492C71.2721 5.68164 71.0475 5.78581 70.7871 5.85742C70.5332 5.92904 70.2598 5.9681 69.9668 5.97461H67.8184Z" fill="#EFEFEF"/>
</svg>
