<svg width="34" height="34" viewBox="0 0 34 34" fill="none" xmlns="http://www.w3.org/2000/svg">
<path d="M17.0004 3.39999C9.48979 3.39999 3.40039 9.48939 3.40039 17C3.40039 23.3727 7.78866 28.7051 13.7047 30.1807C13.6412 29.9971 13.6004 29.784 13.6004 29.5199V27.1955C13.0485 27.1955 12.1237 27.1955 11.8913 27.1955C10.9609 27.1955 10.1335 26.7954 9.73232 26.0519C9.28692 25.2257 9.20986 23.9621 8.10599 23.1891C7.77846 22.9319 8.02779 22.6383 8.40519 22.678C9.10219 22.8752 9.68019 23.3535 10.2242 24.0629C10.7659 24.7735 11.0209 24.9345 12.033 24.9345C12.5237 24.9345 13.2581 24.9061 13.9495 24.7973C14.3212 23.8533 14.9638 22.984 15.7492 22.5737C11.2204 22.1079 9.05912 19.8549 9.05912 16.796C9.05912 15.4791 9.62013 14.2052 10.5733 13.1319C10.2605 12.0666 9.86719 9.89399 10.6934 9.06666C12.7311 9.06666 13.9631 10.3881 14.2589 10.7451C15.2743 10.3972 16.3895 10.2 17.5614 10.2C18.7355 10.2 19.8553 10.3972 20.873 10.7474C21.1654 10.3927 22.3985 9.06666 24.4407 9.06666C25.2703 9.89513 24.8725 12.0768 24.5563 13.1399C25.5038 14.2109 26.0614 15.4813 26.0614 16.796C26.0614 19.8526 23.9035 22.1045 19.3815 22.5726C20.6259 23.222 21.5337 25.0467 21.5337 26.4214V29.5199C21.5337 29.6378 21.5077 29.7228 21.4941 29.8237C26.7935 27.9661 30.6004 22.9341 30.6004 17C30.6004 9.48939 24.511 3.39999 17.0004 3.39999Z" fill="url(#paint0_linear_574_19)"/>
<defs>
<linearGradient id="paint0_linear_574_19" x1="17.0004" y1="3.39999" x2="17.0004" y2="30.1807" gradientUnits="userSpaceOnUse">
<stop stop-color="#E02319"/>
<stop offset="1" stop-color="#D0130A"/>
</linearGradient>
</defs>
</svg>
