<svg width="34" height="34" viewBox="0 0 34 34" fill="none" xmlns="http://www.w3.org/2000/svg">
<path d="M16.9994 3.39999C9.48881 3.39999 3.39941 9.48939 3.39941 17C3.39941 23.3727 7.78768 28.7051 13.7037 30.1807C13.6402 29.9971 13.5994 29.784 13.5994 29.5199V27.1955C13.0475 27.1955 12.1227 27.1955 11.8903 27.1955C10.9599 27.1955 10.1325 26.7954 9.73135 26.0519C9.28595 25.2257 9.20888 23.9621 8.10501 23.1891C7.77748 22.9319 8.02681 22.6383 8.40421 22.678C9.10121 22.8752 9.67921 23.3535 10.2232 24.0629C10.7649 24.7735 11.0199 24.9345 12.032 24.9345C12.5227 24.9345 13.2571 24.9061 13.9485 24.7973C14.3202 23.8533 14.9628 22.984 15.7482 22.5737C11.2194 22.1079 9.05815 19.8549 9.05815 16.796C9.05815 15.4791 9.61915 14.2052 10.5723 13.1319C10.2595 12.0666 9.86622 9.89399 10.6924 9.06666C12.7301 9.06666 13.9621 10.3881 14.2579 10.7451C15.2733 10.3972 16.3885 10.2 17.5604 10.2C18.7345 10.2 19.8543 10.3972 20.872 10.7474C21.1644 10.3927 22.3975 9.06666 24.4398 9.06666C25.2694 9.89513 24.8715 12.0768 24.5553 13.1399C25.5028 14.2109 26.0604 15.4813 26.0604 16.796C26.0604 19.8526 23.9025 22.1045 19.3805 22.5726C20.6249 23.222 21.5327 25.0467 21.5327 26.4214V29.5199C21.5327 29.6378 21.5067 29.7228 21.4931 29.8237C26.7925 27.9661 30.5994 22.9341 30.5994 17C30.5994 9.48939 24.51 3.39999 16.9994 3.39999Z" fill="url(#paint0_linear_508_127)"/>
<defs>
<linearGradient id="paint0_linear_508_127" x1="16.9994" y1="3.39999" x2="16.9994" y2="30.1807" gradientUnits="userSpaceOnUse">
<stop stop-color="#EFEFEF"/>
<stop offset="1" stop-color="#CCCCCC"/>
</linearGradient>
</defs>
</svg>
