<svg width="34" height="34" viewBox="0 0 34 34" fill="none" xmlns="http://www.w3.org/2000/svg">
<path d="M27.8807 2.72H6.1207C4.2439 2.72 2.7207 4.2432 2.7207 6.12V27.88C2.7207 29.7568 4.2439 31.28 6.1207 31.28H27.8807C29.7575 31.28 31.2807 29.7568 31.2807 27.88V6.12C31.2807 4.2432 29.7575 2.72 27.8807 2.72ZM11.5607 13.6V26.52H7.4807V13.6H11.5607ZM7.4807 9.8396C7.4807 8.8876 8.2967 8.16 9.5207 8.16C10.7447 8.16 11.5131 8.8876 11.5607 9.8396C11.5607 10.7916 10.7991 11.56 9.5207 11.56C8.2967 11.56 7.4807 10.7916 7.4807 9.8396ZM26.5207 26.52H22.4407C22.4407 26.52 22.4407 20.2232 22.4407 19.72C22.4407 18.36 21.7607 17 20.0607 16.9728H20.0063C18.3607 16.9728 17.6807 18.3736 17.6807 19.72C17.6807 20.3388 17.6807 26.52 17.6807 26.52H13.6007V13.6H17.6807V15.3408C17.6807 15.3408 18.9931 13.6 21.6315 13.6C24.3311 13.6 26.5207 15.4564 26.5207 19.2168V26.52Z" fill="url(#paint0_linear_574_15)"/>
<defs>
<linearGradient id="paint0_linear_574_15" x1="17.0007" y1="2.72" x2="17.0007" y2="31.28" gradientUnits="userSpaceOnUse">
<stop stop-color="#E02319"/>
<stop offset="1" stop-color="#D0130A"/>
</linearGradient>
</defs>
</svg>
