<svg width="34" height="34" viewBox="0 0 34 34" fill="none" xmlns="http://www.w3.org/2000/svg">
<path d="M26.7032 7.9592C24.9186 7.12864 23.0048 6.51672 21.0039 6.16625C20.9674 6.15949 20.931 6.17639 20.9123 6.2102C20.6661 6.6542 20.3935 7.23344 20.2026 7.68872C18.0505 7.36192 15.9094 7.36192 13.8014 7.68872C13.6104 7.22332 13.3279 6.6542 13.0807 6.2102C13.0619 6.17752 13.0255 6.16061 12.9891 6.16625C10.9892 6.5156 9.07549 7.12752 7.28976 7.9592C7.2743 7.96596 7.26105 7.97724 7.25225 7.99188C3.62229 13.4924 2.62789 18.8578 3.11571 24.1566C3.11792 24.1826 3.13226 24.2074 3.15213 24.2231C5.54708 26.007 7.86699 27.09 10.1438 27.8079C10.1803 27.8192 10.2189 27.8056 10.2421 27.7752C10.7806 27.0292 11.2607 26.2426 11.6724 25.4154C11.6967 25.367 11.6735 25.3095 11.6238 25.2903C10.8623 24.9973 10.1372 24.6401 9.43968 24.2344C9.38451 24.2017 9.3801 24.1217 9.43085 24.0834C9.57763 23.9718 9.72446 23.8557 9.86461 23.7385C9.88997 23.7171 9.92531 23.7126 9.95512 23.7261C14.5375 25.8482 19.4985 25.8482 24.0268 23.7261C24.0566 23.7115 24.0919 23.716 24.1184 23.7374C24.2586 23.8546 24.4054 23.9718 24.5533 24.0834C24.604 24.1217 24.6007 24.2017 24.5455 24.2344C23.848 24.648 23.1229 24.9973 22.3603 25.2892C22.3106 25.3084 22.2885 25.367 22.3128 25.4154C22.7333 26.2414 23.2134 27.028 23.742 27.7741C23.7641 27.8056 23.8038 27.8192 23.8403 27.8079C26.1282 27.09 28.4481 26.007 30.843 24.2231C30.864 24.2074 30.8772 24.1837 30.8794 24.1578C31.4633 18.0317 29.9016 12.7104 26.7396 7.993C26.7319 7.97724 26.7186 7.96596 26.7032 7.9592ZM12.3567 20.9302C10.9771 20.9302 9.84032 19.6455 9.84032 18.0678C9.84032 16.4901 10.955 15.2054 12.3567 15.2054C13.7694 15.2054 14.8951 16.5014 14.873 18.0678C14.873 19.6455 13.7583 20.9302 12.3567 20.9302ZM21.6605 20.9302C20.281 20.9302 19.1442 19.6455 19.1442 18.0678C19.1442 16.4901 20.2589 15.2054 21.6605 15.2054C23.0732 15.2054 24.199 16.5014 24.1769 18.0678C24.1769 19.6455 23.0732 20.9302 21.6605 20.9302Z" fill="url(#paint0_linear_574_11)"/>
<defs>
<linearGradient id="paint0_linear_574_11" x1="17" y1="6.16478" x2="17" y2="27.8118" gradientUnits="userSpaceOnUse">
<stop stop-color="#E02319"/>
<stop offset="1" stop-color="#D0130A"/>
</linearGradient>
</defs>
</svg>
