<svg width="34" height="34" viewBox="0 0 34 34" fill="none" xmlns="http://www.w3.org/2000/svg">
<path d="M27.8797 2.72H6.11973C4.24293 2.72 2.71973 4.2432 2.71973 6.12V27.88C2.71973 29.7568 4.24293 31.28 6.11973 31.28H27.8797C29.7565 31.28 31.2797 29.7568 31.2797 27.88V6.12C31.2797 4.2432 29.7565 2.72 27.8797 2.72ZM11.5597 13.6V26.52H7.47973V13.6H11.5597ZM7.47973 9.8396C7.47973 8.8876 8.29573 8.16 9.51973 8.16C10.7437 8.16 11.5121 8.8876 11.5597 9.8396C11.5597 10.7916 10.7981 11.56 9.51973 11.56C8.29573 11.56 7.47973 10.7916 7.47973 9.8396ZM26.5197 26.52H22.4397C22.4397 26.52 22.4397 20.2232 22.4397 19.72C22.4397 18.36 21.7597 17 20.0597 16.9728H20.0053C18.3597 16.9728 17.6797 18.3736 17.6797 19.72C17.6797 20.3388 17.6797 26.52 17.6797 26.52H13.5997V13.6H17.6797V15.3408C17.6797 15.3408 18.9921 13.6 21.6305 13.6C24.3301 13.6 26.5197 15.4564 26.5197 19.2168V26.52Z" fill="url(#paint0_linear_508_123)"/>
<defs>
<linearGradient id="paint0_linear_508_123" x1="16.9997" y1="2.72" x2="16.9997" y2="31.28" gradientUnits="userSpaceOnUse">
<stop stop-color="#EFEFEF"/>
<stop offset="1" stop-color="#CCCCCC"/>
</linearGradient>
</defs>
</svg>
