<svg width="34" height="34" viewBox="0 0 34 34" fill="none" xmlns="http://www.w3.org/2000/svg">
<path d="M26.7022 7.9592C24.9176 7.12864 23.0038 6.51672 21.0029 6.16625C20.9665 6.15949 20.9301 6.17639 20.9113 6.2102C20.6652 6.6542 20.3925 7.23344 20.2016 7.68872C18.0495 7.36192 15.9084 7.36192 13.8004 7.68872C13.6094 7.22332 13.3269 6.6542 13.0797 6.2102C13.0609 6.17752 13.0245 6.16061 12.9881 6.16625C10.9883 6.5156 9.07451 7.12752 7.28878 7.9592C7.27332 7.96596 7.26007 7.97724 7.25128 7.99188C3.62131 13.4924 2.62691 18.8578 3.11473 24.1566C3.11694 24.1826 3.13129 24.2074 3.15115 24.2231C5.5461 26.007 7.86602 27.09 10.1428 27.8079C10.1793 27.8192 10.2179 27.8056 10.2411 27.7752C10.7797 27.0292 11.2598 26.2426 11.6714 25.4154C11.6957 25.367 11.6725 25.3095 11.6229 25.2903C10.8613 24.9973 10.1362 24.6401 9.43871 24.2344C9.38354 24.2017 9.37912 24.1217 9.42987 24.0834C9.57666 23.9718 9.72348 23.8557 9.86364 23.7385C9.889 23.7171 9.92433 23.7126 9.95414 23.7261C14.5365 25.8482 19.4975 25.8482 24.0258 23.7261C24.0556 23.7115 24.091 23.716 24.1174 23.7374C24.2576 23.8546 24.4044 23.9718 24.5523 24.0834C24.603 24.1217 24.5997 24.2017 24.5446 24.2344C23.847 24.648 23.1219 24.9973 22.3593 25.2892C22.3096 25.3084 22.2876 25.367 22.3118 25.4154C22.7323 26.2414 23.2124 27.028 23.7411 27.7741C23.7632 27.8056 23.8029 27.8192 23.8393 27.8079C26.1272 27.09 28.4471 26.007 30.842 24.2231C30.863 24.2074 30.8763 24.1837 30.8785 24.1578C31.4623 18.0317 29.9006 12.7104 26.7386 7.993C26.7309 7.97724 26.7177 7.96596 26.7022 7.9592ZM12.3557 20.9302C10.9761 20.9302 9.83934 19.6455 9.83934 18.0678C9.83934 16.4901 10.9541 15.2054 12.3557 15.2054C13.7684 15.2054 14.8941 16.5014 14.872 18.0678C14.872 19.6455 13.7573 20.9302 12.3557 20.9302ZM21.6596 20.9302C20.28 20.9302 19.1432 19.6455 19.1432 18.0678C19.1432 16.4901 20.2579 15.2054 21.6596 15.2054C23.0723 15.2054 24.198 16.5014 24.1759 18.0678C24.1759 19.6455 23.0723 20.9302 21.6596 20.9302Z" fill="url(#paint0_linear_508_138)"/>
<defs>
<linearGradient id="paint0_linear_508_138" x1="16.999" y1="6.16478" x2="16.999" y2="27.8118" gradientUnits="userSpaceOnUse">
<stop stop-color="#EFEFEF"/>
<stop offset="1" stop-color="#CCCCCC"/>
</linearGradient>
</defs>
</svg>
