<svg width="89" height="13" viewBox="0 0 89 13" fill="none" xmlns="http://www.w3.org/2000/svg">
<path d="M10.6934 8.19141H8.35938C8.33333 8.54948 8.25846 8.85547 8.13477 9.10938C8.01107 9.36328 7.84831 9.57487 7.64648 9.74414C7.43164 9.93294 7.17122 10.0729 6.86523 10.1641C6.56576 10.2487 6.23698 10.291 5.87891 10.291C5.45573 10.291 5.08138 10.2064 4.75586 10.0371C4.43034 9.86784 4.1569 9.63672 3.93555 9.34375C3.7207 9.05078 3.55469 8.70898 3.4375 8.31836C3.32682 7.92122 3.26823 7.49154 3.26172 7.0293V5.60352C3.26823 5.1543 3.32682 4.73438 3.4375 4.34375C3.55469 3.94661 3.72396 3.60156 3.94531 3.30859C4.16667 3.01562 4.43685 2.78451 4.75586 2.61523C5.08138 2.43945 5.45247 2.35156 5.86914 2.35156C6.27279 2.35156 6.6276 2.40365 6.93359 2.50781C7.23958 2.61198 7.5 2.76497 7.71484 2.9668C7.90365 3.14909 8.05013 3.36719 8.1543 3.62109C8.26497 3.86849 8.33333 4.15495 8.35938 4.48047H10.7129C10.6478 3.83594 10.485 3.26628 10.2246 2.77148C9.96419 2.27018 9.62565 1.84701 9.20898 1.50195C8.79232 1.16341 8.30078 0.90625 7.73438 0.730469C7.16797 0.554688 6.54622 0.466797 5.86914 0.466797C5.14648 0.466797 4.48242 0.597005 3.87695 0.857422C3.27799 1.11133 2.76042 1.4694 2.32422 1.93164C1.88151 2.39388 1.53646 2.9375 1.28906 3.5625C1.04818 4.1875 0.927734 4.87109 0.927734 5.61328V7.0293C0.927734 7.75846 1.04492 8.43555 1.2793 9.06055C1.52018 9.68555 1.85547 10.2292 2.28516 10.6914C2.71484 11.1471 3.23242 11.5052 3.83789 11.7656C4.44987 12.026 5.13021 12.1562 5.87891 12.1562C6.50391 12.1562 7.09635 12.0749 7.65625 11.9121C8.22266 11.7493 8.7207 11.5052 9.15039 11.1797C9.58008 10.8477 9.93164 10.4342 10.2051 9.93945C10.4785 9.44466 10.6413 8.86198 10.6934 8.19141ZM23.8809 7.00977V5.63281C23.8743 4.92969 23.7572 4.26562 23.5293 3.64062C23.3079 3.00911 22.9889 2.45573 22.5723 1.98047C22.1491 1.51823 21.6348 1.15039 21.0293 0.876953C20.4303 0.603516 19.7533 0.466797 18.998 0.466797C18.2363 0.466797 17.556 0.603516 16.957 0.876953C16.3581 1.15039 15.8503 1.52148 15.4336 1.99023C15.0104 2.46549 14.6882 3.01562 14.4668 3.64062C14.2454 4.26562 14.1348 4.92969 14.1348 5.63281V7.00977C14.1348 7.71289 14.2454 8.37695 14.4668 9.00195C14.6947 9.62695 15.0202 10.1706 15.4434 10.6328C15.86 11.1016 16.3678 11.4727 16.9668 11.7461C17.5723 12.0195 18.2559 12.1562 19.0176 12.1562C19.7728 12.1562 20.4499 12.0195 21.0488 11.7461C21.6478 11.4727 22.1556 11.1048 22.5723 10.6426C22.9954 10.1738 23.3177 9.62695 23.5391 9.00195C23.7604 8.37695 23.8743 7.71289 23.8809 7.00977ZM21.5469 5.61328V7.00977C21.5404 7.42643 21.4883 7.83333 21.3906 8.23047C21.293 8.62109 21.1432 8.9694 20.9414 9.27539C20.7396 9.58138 20.4792 9.82878 20.1602 10.0176C19.8411 10.1999 19.4603 10.291 19.0176 10.291C18.5618 10.291 18.1745 10.1999 17.8555 10.0176C17.5365 9.82878 17.276 9.58138 17.0742 9.27539C16.8659 8.9694 16.7129 8.62109 16.6152 8.23047C16.5241 7.83333 16.4753 7.42643 16.4688 7.00977V5.61328C16.4753 5.20312 16.5241 4.80273 16.6152 4.41211C16.7064 4.01497 16.8561 3.66341 17.0645 3.35742C17.2663 3.05794 17.5234 2.81706 17.8359 2.63477C18.1549 2.44596 18.5423 2.35156 18.998 2.35156C19.4408 2.35156 19.8216 2.44271 20.1406 2.625C20.4596 2.80729 20.7233 3.05143 20.9316 3.35742C21.14 3.6569 21.293 4.00521 21.3906 4.40234C21.4883 4.79297 21.5404 5.19661 21.5469 5.61328ZM36.1992 12V0.623047H33.9043L33.9336 8.18164L29.998 0.623047H27.7227V12H30.0078L29.9785 4.45117L33.9336 12H36.1992ZM50.334 2.51758V0.623047H39.8945V2.51758H43.9082V12H46.2715V2.51758H50.334ZM60.3867 9.60742L61.3047 12H63.668L59.1367 0.623047H56.9297L52.3887 12H54.7715L55.6797 9.60742H60.3867ZM56.3438 7.83008L57.8672 3.80664L58.0234 3.39648L58.1895 3.81641L59.7129 7.83008H56.3438ZM76.3574 2.51758V0.623047H65.918V2.51758H69.9316V12H72.2949V2.51758H76.3574ZM88.9395 7.00977V5.63281C88.9329 4.92969 88.8158 4.26562 88.5879 3.64062C88.3665 3.00911 88.0475 2.45573 87.6309 1.98047C87.2077 1.51823 86.6934 1.15039 86.0879 0.876953C85.4889 0.603516 84.8118 0.466797 84.0566 0.466797C83.2949 0.466797 82.6146 0.603516 82.0156 0.876953C81.4167 1.15039 80.9089 1.52148 80.4922 1.99023C80.069 2.46549 79.7467 3.01562 79.5254 3.64062C79.304 4.26562 79.1934 4.92969 79.1934 5.63281V7.00977C79.1934 7.71289 79.304 8.37695 79.5254 9.00195C79.7533 9.62695 80.0788 10.1706 80.502 10.6328C80.9186 11.1016 81.4264 11.4727 82.0254 11.7461C82.6309 12.0195 83.3145 12.1562 84.0762 12.1562C84.8314 12.1562 85.5085 12.0195 86.1074 11.7461C86.7064 11.4727 87.2142 11.1048 87.6309 10.6426C88.054 10.1738 88.3763 9.62695 88.5977 9.00195C88.819 8.37695 88.9329 7.71289 88.9395 7.00977ZM86.6055 5.61328V7.00977C86.599 7.42643 86.5469 7.83333 86.4492 8.23047C86.3516 8.62109 86.2018 8.9694 86 9.27539C85.7982 9.58138 85.5378 9.82878 85.2188 10.0176C84.8997 10.1999 84.5189 10.291 84.0762 10.291C83.6204 10.291 83.2331 10.1999 82.9141 10.0176C82.5951 9.82878 82.3346 9.58138 82.1328 9.27539C81.9245 8.9694 81.7715 8.62109 81.6738 8.23047C81.5827 7.83333 81.5339 7.42643 81.5273 7.00977V5.61328C81.5339 5.20312 81.5827 4.80273 81.6738 4.41211C81.765 4.01497 81.9147 3.66341 82.123 3.35742C82.3249 3.05794 82.582 2.81706 82.8945 2.63477C83.2135 2.44596 83.6009 2.35156 84.0566 2.35156C84.4993 2.35156 84.8802 2.44271 85.1992 2.625C85.5182 2.80729 85.7819 3.05143 85.9902 3.35742C86.1986 3.6569 86.3516 4.00521 86.4492 4.40234C86.5469 4.79297 86.599 5.19661 86.6055 5.61328Z" fill="#EFEFEF"/>
</svg>
