<svg width="114" height="16" viewBox="0 0 114 16" fill="none" xmlns="http://www.w3.org/2000/svg">
<path d="M3.08203 11.0645H5.37695C6.00195 11.0645 6.58138 10.9831 7.11523 10.8203C7.6556 10.651 8.1276 10.4102 8.53125 10.0977C8.92839 9.78516 9.24089 9.4043 9.46875 8.95508C9.69661 8.50586 9.81055 7.99154 9.81055 7.41211C9.81055 6.82617 9.69661 6.29883 9.46875 5.83008C9.24089 5.36133 8.92839 4.96419 8.53125 4.63867C8.1276 4.31315 7.6556 4.0625 7.11523 3.88672C6.58138 3.71094 6.00195 3.62305 5.37695 3.62305H0.748047V15H3.08203V11.0645ZM3.08203 9.18945V5.51758H5.37695C5.68294 5.51758 5.96289 5.56641 6.2168 5.66406C6.47721 5.75521 6.69857 5.88216 6.88086 6.04492C7.06315 6.21419 7.20638 6.41602 7.31055 6.65039C7.41471 6.88477 7.4668 7.14518 7.4668 7.43164C7.4668 7.69857 7.41471 7.93945 7.31055 8.1543C7.20638 8.36914 7.06315 8.55143 6.88086 8.70117C6.69857 8.85742 6.47721 8.97786 6.2168 9.0625C5.96289 9.14062 5.68294 9.18294 5.37695 9.18945H3.08203ZM22.8809 10.0098V8.63281C22.8743 7.92969 22.7572 7.26562 22.5293 6.64062C22.3079 6.00911 21.9889 5.45573 21.5723 4.98047C21.1491 4.51823 20.6348 4.15039 20.0293 3.87695C19.4303 3.60352 18.7533 3.4668 17.998 3.4668C17.2363 3.4668 16.556 3.60352 15.957 3.87695C15.3581 4.15039 14.8503 4.52148 14.4336 4.99023C14.0104 5.46549 13.6882 6.01562 13.4668 6.64062C13.2454 7.26562 13.1348 7.92969 13.1348 8.63281V10.0098C13.1348 10.7129 13.2454 11.377 13.4668 12.002C13.6947 12.627 14.0202 13.1706 14.4434 13.6328C14.86 14.1016 15.3678 14.4727 15.9668 14.7461C16.5723 15.0195 17.2559 15.1562 18.0176 15.1562C18.7728 15.1562 19.4499 15.0195 20.0488 14.7461C20.6478 14.4727 21.1556 14.1048 21.5723 13.6426C21.9954 13.1738 22.3177 12.627 22.5391 12.002C22.7604 11.377 22.8743 10.7129 22.8809 10.0098ZM20.5469 8.61328V10.0098C20.5404 10.4264 20.4883 10.8333 20.3906 11.2305C20.293 11.6211 20.1432 11.9694 19.9414 12.2754C19.7396 12.5814 19.4792 12.8288 19.1602 13.0176C18.8411 13.1999 18.4603 13.291 18.0176 13.291C17.5618 13.291 17.1745 13.1999 16.8555 13.0176C16.5365 12.8288 16.276 12.5814 16.0742 12.2754C15.8659 11.9694 15.7129 11.6211 15.6152 11.2305C15.5241 10.8333 15.4753 10.4264 15.4688 10.0098V8.61328C15.4753 8.20312 15.5241 7.80273 15.6152 7.41211C15.7064 7.01497 15.8561 6.66341 16.0645 6.35742C16.2663 6.05794 16.5234 5.81706 16.8359 5.63477C17.1549 5.44596 17.5423 5.35156 17.998 5.35156C18.4408 5.35156 18.8216 5.44271 19.1406 5.625C19.4596 5.80729 19.7233 6.05143 19.9316 6.35742C20.14 6.6569 20.293 7.00521 20.3906 7.40234C20.4883 7.79297 20.5404 8.19661 20.5469 8.61328ZM31.0195 10.8496L33.3438 15H35.8535V14.8926L33.1582 10.2441C33.4772 10.1009 33.7734 9.9349 34.0469 9.74609C34.3203 9.55729 34.5547 9.33594 34.75 9.08203C34.9518 8.83464 35.1048 8.54818 35.209 8.22266C35.3197 7.89062 35.375 7.50651 35.375 7.07031C35.375 6.47786 35.2578 5.9668 35.0234 5.53711C34.7956 5.10742 34.4798 4.74935 34.0762 4.46289C33.6725 4.18294 33.1973 3.97461 32.6504 3.83789C32.11 3.69466 31.5273 3.62305 30.9023 3.62305H26.4492V15H28.7832V10.8496H31.0195ZM28.7832 8.97461V5.52734H30.9023C31.2018 5.53385 31.4785 5.56966 31.7324 5.63477C31.9928 5.69987 32.2174 5.80078 32.4062 5.9375C32.6081 6.07422 32.7643 6.25326 32.875 6.47461C32.9857 6.69596 33.041 6.95964 33.041 7.26562C33.041 7.55859 32.9857 7.8125 32.875 8.02734C32.7643 8.23568 32.6146 8.4082 32.4258 8.54492C32.237 8.68164 32.0124 8.78581 31.752 8.85742C31.498 8.92904 31.2246 8.9681 30.9316 8.97461H28.7832ZM49.334 5.51758V3.62305H38.8945V5.51758H42.9082V15H45.2715V5.51758H49.334ZM60.8516 10.3418V8.44727H55.3242V5.51758H61.5742V3.62305H52.9414V15H55.3242V10.3418H60.8516ZM74.9277 10.0098V8.63281C74.9212 7.92969 74.804 7.26562 74.5762 6.64062C74.3548 6.00911 74.0358 5.45573 73.6191 4.98047C73.196 4.51823 72.6816 4.15039 72.0762 3.87695C71.4772 3.60352 70.8001 3.4668 70.0449 3.4668C69.2832 3.4668 68.6029 3.60352 68.0039 3.87695C67.4049 4.15039 66.8971 4.52148 66.4805 4.99023C66.0573 5.46549 65.735 6.01562 65.5137 6.64062C65.2923 7.26562 65.1816 7.92969 65.1816 8.63281V10.0098C65.1816 10.7129 65.2923 11.377 65.5137 12.002C65.7415 12.627 66.0671 13.1706 66.4902 13.6328C66.9069 14.1016 67.4147 14.4727 68.0137 14.7461C68.6191 15.0195 69.3027 15.1562 70.0645 15.1562C70.8197 15.1562 71.4967 15.0195 72.0957 14.7461C72.6947 14.4727 73.2025 14.1048 73.6191 13.6426C74.0423 13.1738 74.3646 12.627 74.5859 12.002C74.8073 11.377 74.9212 10.7129 74.9277 10.0098ZM72.5938 8.61328V10.0098C72.5872 10.4264 72.5352 10.8333 72.4375 11.2305C72.3398 11.6211 72.1901 11.9694 71.9883 12.2754C71.7865 12.5814 71.526 12.8288 71.207 13.0176C70.888 13.1999 70.5072 13.291 70.0645 13.291C69.6087 13.291 69.2214 13.1999 68.9023 13.0176C68.5833 12.8288 68.3229 12.5814 68.1211 12.2754C67.9128 11.9694 67.7598 11.6211 67.6621 11.2305C67.571 10.8333 67.5221 10.4264 67.5156 10.0098V8.61328C67.5221 8.20312 67.571 7.80273 67.6621 7.41211C67.7533 7.01497 67.903 6.66341 68.1113 6.35742C68.3132 6.05794 68.5703 5.81706 68.8828 5.63477C69.2018 5.44596 69.5892 5.35156 70.0449 5.35156C70.4876 5.35156 70.8685 5.44271 71.1875 5.625C71.5065 5.80729 71.7702 6.05143 71.9785 6.35742C72.1868 6.6569 72.3398 7.00521 72.4375 7.40234C72.5352 7.79297 72.5872 8.19661 72.5938 8.61328ZM70.9434 0.117188L69.1367 2.7832H70.9336L73.5996 0.117188H70.9434ZM81.2305 13.125V3.62305H78.8379V15H87.9883V13.125H81.2305ZM92.1133 3.63281V5.57617H94.9453V13.0664H92.1133V15H100.199V13.0664H97.2891V5.57617H100.199V3.63281H92.1133ZM113.963 10.0098V8.63281C113.956 7.92969 113.839 7.26562 113.611 6.64062C113.39 6.00911 113.071 5.45573 112.654 4.98047C112.231 4.51823 111.717 4.15039 111.111 3.87695C110.512 3.60352 109.835 3.4668 109.08 3.4668C108.318 3.4668 107.638 3.60352 107.039 3.87695C106.44 4.15039 105.932 4.52148 105.516 4.99023C105.092 5.46549 104.77 6.01562 104.549 6.64062C104.327 7.26562 104.217 7.92969 104.217 8.63281V10.0098C104.217 10.7129 104.327 11.377 104.549 12.002C104.777 12.627 105.102 13.1706 105.525 13.6328C105.942 14.1016 106.45 14.4727 107.049 14.7461C107.654 15.0195 108.338 15.1562 109.1 15.1562C109.855 15.1562 110.532 15.0195 111.131 14.7461C111.73 14.4727 112.238 14.1048 112.654 13.6426C113.077 13.1738 113.4 12.627 113.621 12.002C113.842 11.377 113.956 10.7129 113.963 10.0098ZM111.629 8.61328V10.0098C111.622 10.4264 111.57 10.8333 111.473 11.2305C111.375 11.6211 111.225 11.9694 111.023 12.2754C110.822 12.5814 110.561 12.8288 110.242 13.0176C109.923 13.1999 109.542 13.291 109.1 13.291C108.644 13.291 108.257 13.1999 107.938 13.0176C107.618 12.8288 107.358 12.5814 107.156 12.2754C106.948 11.9694 106.795 11.6211 106.697 11.2305C106.606 10.8333 106.557 10.4264 106.551 10.0098V8.61328C106.557 8.20312 106.606 7.80273 106.697 7.41211C106.788 7.01497 106.938 6.66341 107.146 6.35742C107.348 6.05794 107.605 5.81706 107.918 5.63477C108.237 5.44596 108.624 5.35156 109.08 5.35156C109.523 5.35156 109.904 5.44271 110.223 5.625C110.542 5.80729 110.805 6.05143 111.014 6.35742C111.222 6.6569 111.375 7.00521 111.473 7.40234C111.57 7.79297 111.622 8.19661 111.629 8.61328Z" fill="#EFEFEF"/>
</svg>
