<svg width="141" height="13" viewBox="0 0 141 13" fill="none" xmlns="http://www.w3.org/2000/svg">
<path d="M11.2988 2.51758V0.623047H0.859375V2.51758H4.87305V12H7.23633V2.51758H11.2988ZM22.5625 7.04883V5.1543H17.0938V2.51758H23.4512V0.623047H14.7402V12H23.4414V10.125H17.0938V7.04883H22.5625ZM36.7168 8.19141H34.3828C34.3568 8.54948 34.2819 8.85547 34.1582 9.10938C34.0345 9.36328 33.8717 9.57487 33.6699 9.74414C33.4551 9.93294 33.1947 10.0729 32.8887 10.1641C32.5892 10.2487 32.2604 10.291 31.9023 10.291C31.4792 10.291 31.1048 10.2064 30.7793 10.0371C30.4538 9.86784 30.1803 9.63672 29.959 9.34375C29.7441 9.05078 29.5781 8.70898 29.4609 8.31836C29.3503 7.92122 29.2917 7.49154 29.2852 7.0293V5.60352C29.2917 5.1543 29.3503 4.73438 29.4609 4.34375C29.5781 3.94661 29.7474 3.60156 29.9688 3.30859C30.1901 3.01562 30.4603 2.78451 30.7793 2.61523C31.1048 2.43945 31.4759 2.35156 31.8926 2.35156C32.2962 2.35156 32.651 2.40365 32.957 2.50781C33.263 2.61198 33.5234 2.76497 33.7383 2.9668C33.9271 3.14909 34.0736 3.36719 34.1777 3.62109C34.2884 3.86849 34.3568 4.15495 34.3828 4.48047H36.7363C36.6712 3.83594 36.5085 3.26628 36.248 2.77148C35.9876 2.27018 35.6491 1.84701 35.2324 1.50195C34.8158 1.16341 34.3242 0.90625 33.7578 0.730469C33.1914 0.554688 32.5697 0.466797 31.8926 0.466797C31.1699 0.466797 30.5059 0.597005 29.9004 0.857422C29.3014 1.11133 28.7839 1.4694 28.3477 1.93164C27.9049 2.39388 27.5599 2.9375 27.3125 3.5625C27.0716 4.1875 26.9512 4.87109 26.9512 5.61328V7.0293C26.9512 7.75846 27.0684 8.43555 27.3027 9.06055C27.5436 9.68555 27.8789 10.2292 28.3086 10.6914C28.7383 11.1471 29.2559 11.5052 29.8613 11.7656C30.4733 12.026 31.1536 12.1562 31.9023 12.1562C32.5273 12.1562 33.1198 12.0749 33.6797 11.9121C34.2461 11.7493 34.7441 11.5052 35.1738 11.1797C35.6035 10.8477 35.9551 10.4342 36.2285 9.93945C36.502 9.44466 36.6647 8.86198 36.7168 8.19141ZM49.2109 12V0.623047H46.916L46.9453 8.18164L43.0098 0.623047H40.7344V12H43.0195L42.9902 4.45117L46.9453 12H49.2109ZM62.916 7.00977V5.63281C62.9095 4.92969 62.7923 4.26562 62.5645 3.64062C62.3431 3.00911 62.0241 2.45573 61.6074 1.98047C61.1842 1.51823 60.6699 1.15039 60.0645 0.876953C59.4655 0.603516 58.7884 0.466797 58.0332 0.466797C57.2715 0.466797 56.5911 0.603516 55.9922 0.876953C55.3932 1.15039 54.8854 1.52148 54.4688 1.99023C54.0456 2.46549 53.7233 3.01562 53.502 3.64062C53.2806 4.26562 53.1699 4.92969 53.1699 5.63281V7.00977C53.1699 7.71289 53.2806 8.37695 53.502 9.00195C53.7298 9.62695 54.0553 10.1706 54.4785 10.6328C54.8952 11.1016 55.403 11.4727 56.002 11.7461C56.6074 12.0195 57.291 12.1562 58.0527 12.1562C58.8079 12.1562 59.485 12.0195 60.084 11.7461C60.6829 11.4727 61.1908 11.1048 61.6074 10.6426C62.0306 10.1738 62.3529 9.62695 62.5742 9.00195C62.7956 8.37695 62.9095 7.71289 62.916 7.00977ZM60.582 5.61328V7.00977C60.5755 7.42643 60.5234 7.83333 60.4258 8.23047C60.3281 8.62109 60.1784 8.9694 59.9766 9.27539C59.7747 9.58138 59.5143 9.82878 59.1953 10.0176C58.8763 10.1999 58.4954 10.291 58.0527 10.291C57.597 10.291 57.2096 10.1999 56.8906 10.0176C56.5716 9.82878 56.3112 9.58138 56.1094 9.27539C55.901 8.9694 55.748 8.62109 55.6504 8.23047C55.5592 7.83333 55.5104 7.42643 55.5039 7.00977V5.61328C55.5104 5.20312 55.5592 4.80273 55.6504 4.41211C55.7415 4.01497 55.8913 3.66341 56.0996 3.35742C56.3014 3.05794 56.5586 2.81706 56.8711 2.63477C57.1901 2.44596 57.5775 2.35156 58.0332 2.35156C58.4759 2.35156 58.8568 2.44271 59.1758 2.625C59.4948 2.80729 59.7585 3.05143 59.9668 3.35742C60.1751 3.6569 60.3281 4.00521 60.4258 4.40234C60.5234 4.79297 60.5755 5.19661 60.582 5.61328ZM69.2188 10.125V0.623047H66.8262V12H75.9766V10.125H69.2188ZM88.9395 7.00977V5.63281C88.9329 4.92969 88.8158 4.26562 88.5879 3.64062C88.3665 3.00911 88.0475 2.45573 87.6309 1.98047C87.2077 1.51823 86.6934 1.15039 86.0879 0.876953C85.4889 0.603516 84.8118 0.466797 84.0566 0.466797C83.2949 0.466797 82.6146 0.603516 82.0156 0.876953C81.4167 1.15039 80.9089 1.52148 80.4922 1.99023C80.069 2.46549 79.7467 3.01562 79.5254 3.64062C79.304 4.26562 79.1934 4.92969 79.1934 5.63281V7.00977C79.1934 7.71289 79.304 8.37695 79.5254 9.00195C79.7533 9.62695 80.0788 10.1706 80.502 10.6328C80.9186 11.1016 81.4264 11.4727 82.0254 11.7461C82.6309 12.0195 83.3145 12.1562 84.0762 12.1562C84.8314 12.1562 85.5085 12.0195 86.1074 11.7461C86.7064 11.4727 87.2142 11.1048 87.6309 10.6426C88.054 10.1738 88.3763 9.62695 88.5977 9.00195C88.819 8.37695 88.9329 7.71289 88.9395 7.00977ZM86.6055 5.61328V7.00977C86.599 7.42643 86.5469 7.83333 86.4492 8.23047C86.3516 8.62109 86.2018 8.9694 86 9.27539C85.7982 9.58138 85.5378 9.82878 85.2188 10.0176C84.8997 10.1999 84.5189 10.291 84.0762 10.291C83.6204 10.291 83.2331 10.1999 82.9141 10.0176C82.5951 9.82878 82.3346 9.58138 82.1328 9.27539C81.9245 8.9694 81.7715 8.62109 81.6738 8.23047C81.5827 7.83333 81.5339 7.42643 81.5273 7.00977V5.61328C81.5339 5.20312 81.5827 4.80273 81.6738 4.41211C81.765 4.01497 81.9147 3.66341 82.123 3.35742C82.3249 3.05794 82.582 2.81706 82.8945 2.63477C83.2135 2.44596 83.6009 2.35156 84.0566 2.35156C84.4993 2.35156 84.8802 2.44271 85.1992 2.625C85.5182 2.80729 85.7819 3.05143 85.9902 3.35742C86.1986 3.6569 86.3516 4.00521 86.4492 4.40234C86.5469 4.79297 86.599 5.19661 86.6055 5.61328ZM101.863 10.5547V5.96484H97.1562V7.72266H99.5293L99.5195 9.75391C99.4089 9.85156 99.2721 9.9362 99.1094 10.0078C98.9466 10.0729 98.7676 10.1283 98.5723 10.1738C98.377 10.2129 98.1686 10.2422 97.9473 10.2617C97.7324 10.2812 97.5143 10.291 97.293 10.291C96.8112 10.291 96.3913 10.2031 96.0332 10.0273C95.6751 9.85156 95.3822 9.61393 95.1543 9.31445C94.9264 9.02799 94.7539 8.68945 94.6367 8.29883C94.526 7.90169 94.4674 7.48503 94.4609 7.04883V5.57422C94.4674 5.13151 94.5293 4.71484 94.6465 4.32422C94.7702 3.93359 94.9492 3.5918 95.1836 3.29883C95.4049 3.00586 95.6816 2.77474 96.0137 2.60547C96.3457 2.4362 96.7233 2.35156 97.1465 2.35156C97.498 2.35156 97.8171 2.39062 98.1035 2.46875C98.3965 2.54688 98.6471 2.67057 98.8555 2.83984C99.0508 2.98958 99.207 3.17839 99.3242 3.40625C99.4414 3.63411 99.5163 3.90755 99.5488 4.22656H101.834C101.788 3.64062 101.648 3.11654 101.414 2.6543C101.186 2.18555 100.87 1.79167 100.467 1.47266C100.063 1.14714 99.5781 0.89974 99.0117 0.730469C98.4453 0.554688 97.8073 0.466797 97.0977 0.466797C96.362 0.466797 95.6882 0.597005 95.0762 0.857422C94.4707 1.11133 93.9499 1.46615 93.5137 1.92188C93.0775 2.3776 92.7357 2.91797 92.4883 3.54297C92.2474 4.16797 92.127 4.85156 92.127 5.59375V7.04883C92.127 7.78451 92.2474 8.46484 92.4883 9.08984C92.7292 9.71484 93.0677 10.2552 93.5039 10.7109C93.9401 11.1667 94.4707 11.5215 95.0957 11.7754C95.7207 12.0293 96.4271 12.1562 97.2148 12.1562C97.7161 12.1562 98.2012 12.1172 98.6699 12.0391C99.1387 11.9674 99.5749 11.8633 99.9785 11.7266C100.376 11.5898 100.734 11.4238 101.053 11.2285C101.378 11.0267 101.648 10.8021 101.863 10.5547ZM106.125 0.632812V2.57617H108.957V10.0664H106.125V12H114.211V10.0664H111.301V2.57617H114.211V0.632812H106.125ZM125.445 9.60742L126.363 12H128.727L124.195 0.623047H121.988L117.447 12H119.83L120.738 9.60742H125.445ZM121.402 7.83008L122.926 3.80664L123.082 3.39648L123.248 3.81641L124.771 7.83008H121.402ZM138.604 8.99219C138.597 9.21354 138.532 9.41211 138.408 9.58789C138.291 9.76367 138.132 9.91016 137.93 10.0273C137.721 10.1445 137.48 10.2357 137.207 10.3008C136.94 10.3594 136.657 10.3887 136.357 10.3887C136.025 10.3887 135.703 10.3594 135.391 10.3008C135.085 10.2357 134.814 10.1283 134.58 9.97852C134.339 9.83529 134.147 9.64323 134.004 9.40234C133.861 9.16146 133.786 8.86523 133.779 8.51367H131.426C131.439 8.93685 131.504 9.31771 131.621 9.65625C131.745 9.98828 131.908 10.2812 132.109 10.5352C132.298 10.776 132.52 10.9876 132.773 11.1699C133.027 11.3457 133.304 11.4922 133.604 11.6094C134.001 11.8047 134.43 11.9447 134.893 12.0293C135.355 12.1139 135.817 12.1562 136.279 12.1562C136.885 12.1562 137.467 12.0944 138.027 11.9707C138.587 11.8405 139.085 11.6419 139.521 11.375C139.925 11.1146 140.251 10.7858 140.498 10.3887C140.745 9.98503 140.869 9.50326 140.869 8.94336C140.869 8.37695 140.758 7.89844 140.537 7.50781C140.316 7.11068 140.016 6.77214 139.639 6.49219C139.255 6.21875 138.805 5.99089 138.291 5.80859C137.777 5.61979 137.23 5.45378 136.65 5.31055C136.279 5.22591 135.915 5.12826 135.557 5.01758C135.205 4.9069 134.909 4.77995 134.668 4.63672C134.486 4.52604 134.342 4.39258 134.238 4.23633C134.141 4.07357 134.092 3.87826 134.092 3.65039C134.092 3.42904 134.15 3.23047 134.268 3.05469C134.385 2.87891 134.544 2.73242 134.746 2.61523C134.941 2.49805 135.169 2.41016 135.43 2.35156C135.69 2.28646 135.964 2.25391 136.25 2.25391C136.543 2.25391 136.823 2.29297 137.09 2.37109C137.357 2.44922 137.594 2.5599 137.803 2.70312C138.011 2.85286 138.174 3.03841 138.291 3.25977C138.415 3.47461 138.48 3.72201 138.486 4.00195H140.83C140.804 3.38346 140.664 2.84961 140.41 2.40039C140.163 1.95117 139.834 1.58333 139.424 1.29688C139.007 1.01042 138.525 0.802083 137.979 0.671875C137.432 0.535156 136.855 0.466797 136.25 0.466797C135.697 0.466797 135.16 0.531901 134.639 0.662109C134.118 0.792318 133.659 0.984375 133.262 1.23828C132.826 1.51172 132.477 1.85677 132.217 2.27344C131.963 2.68359 131.836 3.16536 131.836 3.71875C131.836 4.27865 131.943 4.75065 132.158 5.13477C132.38 5.51888 132.682 5.8444 133.066 6.11133C133.451 6.37174 133.9 6.58984 134.414 6.76562C134.928 6.94141 135.475 7.10091 136.055 7.24414C136.419 7.33529 136.777 7.4362 137.129 7.54688C137.487 7.65104 137.777 7.78125 137.998 7.9375C138.206 8.08724 138.359 8.24349 138.457 8.40625C138.555 8.5625 138.604 8.75781 138.604 8.99219Z" fill="#EFEFEF"/>
</svg>
