<svg width="256" height="19" viewBox="0 0 256 19" fill="none" xmlns="http://www.w3.org/2000/svg">
<path d="M5.98633 13.8652L3.30078 5.62305H0.439453L4.66797 17H7.57812L11.8262 5.62305H8.96484L6.25 13.8848L6.12305 14.4902L5.98633 13.8652ZM22.6602 12.1758V9.99805H17.2988V7.80078H23.5586V5.62305H14.5742V17H23.5V14.8418H17.2988V12.1758H22.6602ZM32.0488 13.0254L34.2266 17H37.1465V16.8926L34.5391 12.3027C34.8581 12.1595 35.151 11.9935 35.418 11.8047C35.6849 11.6159 35.9128 11.3913 36.1016 11.1309C36.2904 10.877 36.4368 10.5807 36.541 10.2422C36.6452 9.89714 36.6973 9.5 36.6973 9.05078C36.6973 8.47786 36.5866 7.97982 36.3652 7.55664C36.1439 7.12695 35.8314 6.76888 35.4277 6.48242C35.0241 6.19596 34.5423 5.98112 33.9824 5.83789C33.4225 5.69466 32.8073 5.62305 32.1367 5.62305H27.459V17H30.1836V13.0254H32.0488ZM30.1836 10.8477V7.83008H32.1367C32.4102 7.83008 32.6576 7.85938 32.8789 7.91797C33.1003 7.97005 33.2891 8.05469 33.4453 8.17188C33.6211 8.29557 33.7546 8.45508 33.8457 8.65039C33.9434 8.8457 33.9922 9.07357 33.9922 9.33398C33.9857 9.58789 33.9401 9.80924 33.8555 9.99805C33.7708 10.1868 33.6504 10.3431 33.4941 10.4668C33.3314 10.5905 33.1361 10.6849 32.9082 10.75C32.6803 10.8151 32.4232 10.8477 32.1367 10.8477H30.1836ZM61.6953 12.1758V9.99805H56.334V7.80078H62.5938V5.62305H53.6094V17H62.5352V14.8418H56.334V12.1758H61.6953ZM71.1328 11.2871L69.3164 5.62305H66.2305V17H68.7109V9.83203L70.2539 14.6074L72.0312 14.6172L73.4961 10.0273V17H75.9766V5.62305H72.9688L71.1328 11.2871ZM102.586 7.80078V5.62305H91.9023V7.80078H95.8281V17H98.5723V7.80078H102.586ZM113.742 12.1758V9.99805H108.381V7.80078H114.641V5.62305H105.656V17H114.582V14.8418H108.381V12.1758H113.742ZM121.422 14.8418V5.62305H118.678V17H128.111V14.8418H121.422ZM138.34 14.8418L139.15 17H141.914L137.412 5.62305H134.775L130.332 17H133.105L133.887 14.8418H138.34ZM134.619 12.8496L136.035 8.96289L136.094 8.78711L136.162 8.96289L137.598 12.8496H134.619ZM166.951 13.1035H164.236C164.236 13.4551 164.174 13.7513 164.051 13.9922C163.934 14.2331 163.774 14.4284 163.572 14.5781C163.364 14.7279 163.126 14.8385 162.859 14.9102C162.592 14.9753 162.316 15.0078 162.029 15.0078C161.691 15.0078 161.378 14.946 161.092 14.8223C160.812 14.6921 160.568 14.5065 160.359 14.2656C160.151 14.0247 159.985 13.7318 159.861 13.3867C159.744 13.0352 159.686 12.6348 159.686 12.1855V10.4473C159.686 10.0306 159.744 9.65299 159.861 9.31445C159.979 8.9694 160.138 8.67318 160.34 8.42578C160.542 8.17839 160.779 7.98633 161.053 7.84961C161.326 7.71289 161.619 7.64453 161.932 7.64453C162.322 7.64453 162.667 7.69661 162.967 7.80078C163.273 7.89844 163.527 8.04167 163.729 8.23047C163.898 8.39323 164.025 8.58854 164.109 8.81641C164.201 9.03776 164.246 9.28841 164.246 9.56836H166.98C166.928 8.9043 166.769 8.31836 166.502 7.81055C166.242 7.29622 165.893 6.86328 165.457 6.51172C165.021 6.16667 164.503 5.90625 163.904 5.73047C163.312 5.55469 162.654 5.4668 161.932 5.4668C161.242 5.4668 160.594 5.58724 159.988 5.82812C159.389 6.06901 158.865 6.40755 158.416 6.84375C157.967 7.28646 157.612 7.8138 157.352 8.42578C157.091 9.03776 156.961 9.71484 156.961 10.457V12.1855C156.961 12.9212 157.085 13.5951 157.332 14.207C157.586 14.819 157.938 15.3431 158.387 15.7793C158.836 16.2155 159.37 16.554 159.988 16.7949C160.607 17.0358 161.287 17.1562 162.029 17.1562C162.667 17.1562 163.276 17.0781 163.855 16.9219C164.441 16.7591 164.959 16.5117 165.408 16.1797C165.851 15.8477 166.209 15.4277 166.482 14.9199C166.762 14.4056 166.919 13.8001 166.951 13.1035ZM179.387 17V5.62305H176.682V10.3984H173.244V5.62305H170.539V17H173.244V12.5762H176.682V17H179.387ZM191.812 12.1758V9.99805H186.451V7.80078H192.711V5.62305H183.727V17H192.652V14.8418H186.451V12.1758H191.812ZM197.148 5.63281V7.83984H199.805V14.793H197.148V17H205.264V14.793H202.539V7.83984H205.264V5.63281H197.148ZM216.41 14.8418L217.221 17H219.984L215.482 5.62305H212.846L208.402 17H211.176L211.957 14.8418H216.41ZM212.689 12.8496L214.105 8.96289L214.164 8.78711L214.232 8.96289L215.668 12.8496H212.689Z" fill="#EFEFEF"/>
<path d="M251 3L252.917 4.91667L250.508 7.30833L251.692 8.49167L254.083 6.08333L256 8V3H251ZM241 8L242.917 6.08333L245.308 8.49167L246.492 7.30833L244.083 4.91667L246 3H241V8ZM246 18L244.083 16.0833L246.492 13.6917L245.308 12.5083L242.917 14.9167L241 13V18H246ZM256 13L254.083 14.9167L251.692 12.5083L250.508 13.6917L252.917 16.0833L251 18H256V13Z" fill="#EFEFEF"/>
</svg>
