<svg width="183" height="25" viewBox="0 0 183 25" fill="none" xmlns="http://www.w3.org/2000/svg">
<path d="M4.85938 18.1094H8.10938C9.19271 18.1094 10.1771 17.9583 11.0625 17.6562C11.9583 17.3542 12.7292 16.9375 13.375 16.4062C14.0104 15.875 14.5 15.2448 14.8438 14.5156C15.1979 13.776 15.375 12.9688 15.375 12.0938C15.375 11.1667 15.1979 10.3177 14.8438 9.54688C14.5 8.77604 14.0104 8.10938 13.375 7.54688C12.7292 6.99479 11.9583 6.56771 11.0625 6.26562C10.1771 5.95312 9.19271 5.79688 8.10938 5.79688H0.515625V24H4.85938V18.1094ZM4.85938 14.6406V9.28125H8.10938C8.57812 9.28125 8.98958 9.35938 9.34375 9.51562C9.70833 9.66146 10.0156 9.86458 10.2656 10.125C10.5052 10.3854 10.6875 10.6875 10.8125 11.0312C10.9479 11.375 11.0156 11.7396 11.0156 12.125C11.0156 12.4479 10.9479 12.7604 10.8125 13.0625C10.6875 13.3646 10.5052 13.6302 10.2656 13.8594C10.0156 14.099 9.70833 14.2917 9.34375 14.4375C8.98958 14.5729 8.57812 14.6406 8.10938 14.6406H4.85938ZM36.3656 16.4375V13.3906C36.3656 12.276 36.1677 11.2396 35.7719 10.2812C35.3865 9.32292 34.8448 8.48958 34.1469 7.78125C33.4385 7.08333 32.5948 6.53646 31.6156 6.14062C30.6469 5.74479 29.574 5.54688 28.3969 5.54688C27.1885 5.54688 26.0948 5.74479 25.1156 6.14062C24.1469 6.53646 23.3135 7.08333 22.6156 7.78125C21.9177 8.48958 21.3813 9.32292 21.0063 10.2812C20.6313 11.2396 20.4438 12.276 20.4438 13.3906V16.4375C20.4438 17.5521 20.6313 18.5885 21.0063 19.5469C21.3917 20.4948 21.9333 21.3177 22.6313 22.0156C23.3292 22.7135 24.1677 23.2604 25.1469 23.6562C26.126 24.0521 27.2198 24.25 28.4281 24.25C29.6052 24.25 30.6781 24.0521 31.6469 23.6562C32.626 23.2604 33.4646 22.7135 34.1625 22.0156C34.8604 21.3177 35.4021 20.4948 35.7875 19.5469C36.1729 18.5885 36.3656 17.5521 36.3656 16.4375ZM32.0063 13.375V16.4375C32.0063 17.0521 31.9281 17.6302 31.7719 18.1719C31.6156 18.7031 31.3865 19.1667 31.0844 19.5625C30.7823 19.9688 30.4073 20.2865 29.9594 20.5156C29.5115 20.7448 29.001 20.8594 28.4281 20.8594C27.8031 20.8594 27.2615 20.7448 26.8031 20.5156C26.3552 20.276 25.9854 19.9583 25.6938 19.5625C25.3917 19.1667 25.1677 18.7031 25.0219 18.1719C24.8865 17.6302 24.8188 17.0521 24.8188 16.4375V13.375C24.8188 12.7604 24.8865 12.1875 25.0219 11.6562C25.1677 11.1146 25.3865 10.6458 25.6781 10.25C25.9698 9.85417 26.3396 9.54688 26.7875 9.32812C27.2354 9.09896 27.7719 8.98438 28.3969 8.98438C28.9802 8.98438 29.4958 9.09896 29.9438 9.32812C30.3917 9.54688 30.7719 9.85417 31.0844 10.25C31.3865 10.6458 31.6156 11.1094 31.7719 11.6406C31.9281 12.1719 32.0063 12.75 32.0063 13.375ZM49.2781 17.6406L52.7625 24H57.4344V23.8281L53.2625 16.4844C53.7729 16.2552 54.2417 15.9896 54.6688 15.6875C55.0958 15.3854 55.4604 15.026 55.7625 14.6094C56.0646 14.2031 56.299 13.7292 56.4656 13.1875C56.6323 12.6354 56.7156 12 56.7156 11.2812C56.7156 10.3646 56.5385 9.56771 56.1844 8.89062C55.8302 8.20312 55.3302 7.63021 54.6844 7.17188C54.0385 6.71354 53.2677 6.36979 52.3719 6.14062C51.476 5.91146 50.4917 5.79688 49.4188 5.79688H41.9344V24H46.2938V17.6406H49.2781ZM46.2938 14.1562V9.32812H49.4188C49.8563 9.32812 50.2521 9.375 50.6063 9.46875C50.9604 9.55208 51.2625 9.6875 51.5125 9.875C51.7938 10.0729 52.0073 10.3281 52.1531 10.6406C52.3094 10.9531 52.3875 11.3177 52.3875 11.7344C52.3771 12.1406 52.3042 12.4948 52.1688 12.7969C52.0333 13.099 51.8406 13.349 51.5906 13.5469C51.3302 13.7448 51.0177 13.8958 50.6531 14C50.2885 14.1042 49.8771 14.1562 49.4188 14.1562H46.2938ZM78.8625 9.28125V5.79688H61.7687V9.28125H68.05V24H72.4406V9.28125H78.8625ZM97.0406 16.7969V13.3125H88.275V9.28125H98.0406V5.79688H83.9V24H88.275V16.7969H97.0406ZM119.641 16.4375V13.3906C119.641 12.276 119.443 11.2396 119.047 10.2812C118.661 9.32292 118.12 8.48958 117.422 7.78125C116.714 7.08333 115.87 6.53646 114.891 6.14062C113.922 5.74479 112.849 5.54688 111.672 5.54688C110.464 5.54688 109.37 5.74479 108.391 6.14062C107.422 6.53646 106.589 7.08333 105.891 7.78125C105.193 8.48958 104.656 9.32292 104.281 10.2812C103.906 11.2396 103.719 12.276 103.719 13.3906V16.4375C103.719 17.5521 103.906 18.5885 104.281 19.5469C104.667 20.4948 105.208 21.3177 105.906 22.0156C106.604 22.7135 107.443 23.2604 108.422 23.6562C109.401 24.0521 110.495 24.25 111.703 24.25C112.88 24.25 113.953 24.0521 114.922 23.6562C115.901 23.2604 116.74 22.7135 117.438 22.0156C118.135 21.3177 118.677 20.4948 119.062 19.5469C119.448 18.5885 119.641 17.5521 119.641 16.4375ZM115.281 13.375V16.4375C115.281 17.0521 115.203 17.6302 115.047 18.1719C114.891 18.7031 114.661 19.1667 114.359 19.5625C114.057 19.9688 113.682 20.2865 113.234 20.5156C112.786 20.7448 112.276 20.8594 111.703 20.8594C111.078 20.8594 110.536 20.7448 110.078 20.5156C109.63 20.276 109.26 19.9583 108.969 19.5625C108.667 19.1667 108.443 18.7031 108.297 18.1719C108.161 17.6302 108.094 17.0521 108.094 16.4375V13.375C108.094 12.7604 108.161 12.1875 108.297 11.6562C108.443 11.1146 108.661 10.6458 108.953 10.25C109.245 9.85417 109.615 9.54688 110.062 9.32812C110.51 9.09896 111.047 8.98438 111.672 8.98438C112.255 8.98438 112.771 9.09896 113.219 9.32812C113.667 9.54688 114.047 9.85417 114.359 10.25C114.661 10.6458 114.891 11.1094 115.047 11.6406C115.203 12.1719 115.281 12.75 115.281 13.375ZM112.641 0.28125L109.719 4.64062H113.094L117.422 0.28125H112.641ZM129.819 20.5469V5.79688H125.428V24H140.522V20.5469H129.819ZM146.887 5.8125V9.34375H151.137V20.4688H146.887V24H159.872V20.4688H155.512V9.34375H159.872V5.8125H146.887ZM182.097 16.4375V13.3906C182.097 12.276 181.899 11.2396 181.503 10.2812C181.118 9.32292 180.576 8.48958 179.878 7.78125C179.17 7.08333 178.326 6.53646 177.347 6.14062C176.378 5.74479 175.305 5.54688 174.128 5.54688C172.92 5.54688 171.826 5.74479 170.847 6.14062C169.878 6.53646 169.045 7.08333 168.347 7.78125C167.649 8.48958 167.113 9.32292 166.738 10.2812C166.363 11.2396 166.175 12.276 166.175 13.3906V16.4375C166.175 17.5521 166.363 18.5885 166.738 19.5469C167.123 20.4948 167.665 21.3177 168.363 22.0156C169.06 22.7135 169.899 23.2604 170.878 23.6562C171.857 24.0521 172.951 24.25 174.159 24.25C175.336 24.25 176.409 24.0521 177.378 23.6562C178.357 23.2604 179.196 22.7135 179.894 22.0156C180.592 21.3177 181.133 20.4948 181.519 19.5469C181.904 18.5885 182.097 17.5521 182.097 16.4375ZM177.738 13.375V16.4375C177.738 17.0521 177.659 17.6302 177.503 18.1719C177.347 18.7031 177.118 19.1667 176.816 19.5625C176.514 19.9688 176.139 20.2865 175.691 20.5156C175.243 20.7448 174.732 20.8594 174.159 20.8594C173.534 20.8594 172.993 20.7448 172.534 20.5156C172.086 20.276 171.717 19.9583 171.425 19.5625C171.123 19.1667 170.899 18.7031 170.753 18.1719C170.618 17.6302 170.55 17.0521 170.55 16.4375V13.375C170.55 12.7604 170.618 12.1875 170.753 11.6562C170.899 11.1146 171.118 10.6458 171.409 10.25C171.701 9.85417 172.071 9.54688 172.519 9.32812C172.967 9.09896 173.503 8.98438 174.128 8.98438C174.711 8.98438 175.227 9.09896 175.675 9.32812C176.123 9.54688 176.503 9.85417 176.816 10.25C177.118 10.6458 177.347 11.1094 177.503 11.6406C177.659 12.1719 177.738 12.75 177.738 13.375Z" fill="#EFEFEF"/>
</svg>
