<svg width="127" height="114" viewBox="0 0 127 114" fill="none" xmlns="http://www.w3.org/2000/svg">
<path d="M127 56.6746C127 48.2447 116.464 40.2558 100.311 35.3017C104.039 18.8051 102.382 5.68043 95.0817 1.47847C93.3991 0.492822 91.4317 0.0259376 89.2831 0.0259376V5.81012C90.4739 5.81012 91.4317 6.04356 92.2342 6.48451C95.7548 8.50768 97.2821 16.2113 96.0913 26.1196C95.8066 28.5578 95.3406 31.1256 94.7711 33.7454C89.6973 32.5004 84.1576 31.5406 78.3331 30.9181C74.8384 26.1196 71.2142 21.762 67.5642 17.9491C76.0033 10.0899 83.9246 5.78418 89.309 5.78418V0C82.1902 0 72.871 5.08386 63.4482 13.9028C54.0255 5.13573 44.7063 0.103753 37.5874 0.103753V5.88793C42.946 5.88793 50.8932 10.1677 59.3322 17.9751C55.7081 21.7879 52.084 26.1196 48.6411 30.9181C42.7907 31.5406 37.2509 32.5004 32.1771 33.7713C31.5817 31.1775 31.1417 28.6615 30.831 26.2493C29.6143 16.341 31.1158 8.63737 34.6105 6.58826C35.3871 6.12138 36.3967 5.91387 37.5874 5.91387V0.12969C35.413 0.12969 33.4456 0.596574 31.7371 1.58222C24.4629 5.78418 22.832 18.8829 26.5856 35.3276C10.4841 40.3077 0 48.2707 0 56.6746C0 65.1045 10.5359 73.0934 26.6892 78.0475C22.9615 94.5441 24.6182 107.669 31.9183 111.871C33.6009 112.856 35.5683 113.323 37.7428 113.323C44.8616 113.323 54.1808 108.239 63.6035 99.4205C73.0263 108.188 82.3455 113.22 89.4643 113.22C91.6388 113.22 93.6062 112.753 95.3147 111.767C102.589 107.565 104.22 94.4663 100.466 78.0216C116.516 73.0674 127 65.0785 127 56.6746V56.6746ZM93.2955 39.3739C92.3377 42.7199 91.147 46.1697 89.8008 49.6195C88.7395 47.5444 87.6264 45.4694 86.4097 43.3943C85.2189 41.3193 83.9505 39.2961 82.682 37.3248C86.3579 37.8695 89.9044 38.5439 93.2955 39.3739ZM81.4395 66.9979C79.4203 70.4996 77.3494 73.8196 75.2008 76.9063C71.3437 77.2435 67.4348 77.425 63.5 77.425C59.5911 77.425 55.6822 77.2435 51.851 76.9322C49.7024 73.8456 47.6056 70.5515 45.5864 67.0758C43.619 63.6779 41.8329 60.2281 40.202 56.7524C41.807 53.2767 43.619 49.801 45.5605 46.4031C47.5797 42.9015 49.6506 39.5814 51.7992 36.4948C55.6563 36.1576 59.5652 35.9761 63.5 35.9761C67.4089 35.9761 71.3178 36.1576 75.149 36.4689C77.2976 39.5555 79.3944 42.8496 81.4136 46.3253C83.381 49.7232 85.1671 53.173 86.798 56.6487C85.1671 60.1244 83.381 63.6001 81.4395 66.9979ZM89.8008 63.626C91.1987 67.1017 92.3895 70.5774 93.3732 73.9493C89.9821 74.7794 86.4097 75.4797 82.7079 76.0244C83.9764 74.0272 85.2448 71.978 86.4356 69.8771C87.6264 67.802 88.7395 65.701 89.8008 63.626ZM63.5518 91.3019C61.1443 88.8118 58.7369 86.0365 56.3553 83.0017C58.6851 83.1055 61.0667 83.1833 63.4741 83.1833C65.9075 83.1833 68.3149 83.1314 70.6706 83.0017C68.3408 86.0365 65.9334 88.8118 63.5518 91.3019ZM44.2921 76.0244C40.6162 75.4797 37.0697 74.8053 33.6786 73.9753C34.6364 70.6293 35.8271 67.1795 37.1733 63.7298C38.2346 65.8048 39.3477 67.8798 40.5644 69.9549C41.7811 72.0299 43.0236 74.0531 44.2921 76.0244ZM63.4223 22.0473C65.8298 24.5374 68.2373 27.3127 70.6188 30.3475C68.289 30.2437 65.9075 30.1659 63.5 30.1659C61.0667 30.1659 58.6592 30.2178 56.3035 30.3475C58.6333 27.3127 61.0408 24.5374 63.4223 22.0473ZM44.2662 37.3248C42.9978 39.3221 41.7293 41.3712 40.5385 43.4721C39.3477 45.5472 38.2346 47.6222 37.1733 49.6973C35.7754 46.2216 34.5846 42.7459 33.6009 39.3739C36.9921 38.5699 40.5644 37.8695 44.2662 37.3248V37.3248ZM20.8388 69.7993C11.6749 65.8826 5.74684 60.7469 5.74684 56.6746C5.74684 52.6023 11.6749 47.4407 20.8388 43.55C23.065 42.5903 25.4984 41.7343 28.0094 40.9302C29.4849 46.0141 31.4264 51.3054 33.8339 56.7265C31.4523 62.1216 29.5367 67.387 28.087 72.4449C25.5243 71.6408 23.0909 70.759 20.8388 69.7993ZM34.7658 106.865C31.2452 104.842 29.7179 97.1379 30.9087 87.2296C31.1934 84.7914 31.6594 82.2236 32.2289 79.6038C37.3027 80.8489 42.8424 81.8086 48.6669 82.4311C52.1616 87.2296 55.7858 91.5872 59.4358 95.4001C50.9967 103.259 43.0754 107.565 37.691 107.565C36.5261 107.539 35.5424 107.306 34.7658 106.865V106.865ZM96.169 87.0999C97.3857 97.0082 95.8842 104.712 92.3895 106.761C91.6129 107.228 90.6033 107.435 89.4125 107.435C84.054 107.435 76.1068 103.156 67.6678 95.3482C71.2919 91.5353 74.916 87.2037 78.359 82.4051C84.2093 81.7826 89.7491 80.8229 94.8229 79.552C95.4183 82.1717 95.8842 84.6877 96.169 87.0999V87.0999ZM106.135 69.7993C103.909 70.759 101.476 71.6149 98.9647 72.419C97.4892 67.3351 95.5477 62.0438 93.1402 56.6227C95.5218 51.2276 97.4374 45.9622 98.8871 40.9043C101.45 41.7084 103.883 42.5903 106.161 43.55C115.325 47.4666 121.253 52.6023 121.253 56.6746C121.227 60.7469 115.299 65.9085 106.135 69.7993V69.7993Z" fill="#AF0800"/>
<path d="M63.4738 68.5283C70.0074 68.5283 75.304 63.2212 75.304 56.6746C75.304 50.128 70.0074 44.8209 63.4738 44.8209C56.9401 44.8209 51.6436 50.128 51.6436 56.6746C51.6436 63.2212 56.9401 68.5283 63.4738 68.5283Z" fill="#AF0800"/>
</svg>
