<svg width="40" height="40" viewBox="0 0 40 40" fill="none" xmlns="http://www.w3.org/2000/svg">
<path d="M20.5 7C13.5972 7 8 12.5972 8 19.5C8 26.4028 13.5972 32 20.5 32C21.6528 32 22.5833 31.0694 22.5833 29.9167C22.5833 29.375 22.375 28.8889 22.0417 28.5139C21.7222 28.1528 21.5139 27.6667 21.5139 27.1389C21.5139 25.9861 22.4444 25.0556 23.5972 25.0556H26.0556C29.8889 25.0556 33 21.9444 33 18.1111C33 11.9722 27.4028 7 20.5 7ZM12.8611 19.5C11.7083 19.5 10.7778 18.5694 10.7778 17.4167C10.7778 16.2639 11.7083 15.3333 12.8611 15.3333C14.0139 15.3333 14.9444 16.2639 14.9444 17.4167C14.9444 18.5694 14.0139 19.5 12.8611 19.5ZM17.0278 13.9444C15.875 13.9444 14.9444 13.0139 14.9444 11.8611C14.9444 10.7083 15.875 9.77778 17.0278 9.77778C18.1806 9.77778 19.1111 10.7083 19.1111 11.8611C19.1111 13.0139 18.1806 13.9444 17.0278 13.9444ZM23.9722 13.9444C22.8194 13.9444 21.8889 13.0139 21.8889 11.8611C21.8889 10.7083 22.8194 9.77778 23.9722 9.77778C25.125 9.77778 26.0556 10.7083 26.0556 11.8611C26.0556 13.0139 25.125 13.9444 23.9722 13.9444ZM28.1389 19.5C26.9861 19.5 26.0556 18.5694 26.0556 17.4167C26.0556 16.2639 26.9861 15.3333 28.1389 15.3333C29.2917 15.3333 30.2222 16.2639 30.2222 17.4167C30.2222 18.5694 29.2917 19.5 28.1389 19.5Z" fill="current"/>
</svg>
