<svg width="200" height="19" viewBox="0 0 200 19" fill="none" xmlns="http://www.w3.org/2000/svg">
<path d="M15.9482 3.77637V0.93457H0.289062V3.77637H6.30957V18H9.85449V3.77637H15.9482ZM31.7938 10.5732V7.73145H23.5906V3.77637H33.1268V0.93457H20.0604V18H33.1121V15.1875H23.5906V10.5732H31.7938ZM51.9752 12.2871H48.4742C48.4352 12.8242 48.3229 13.2832 48.1373 13.6641C47.9518 14.0449 47.7076 14.3623 47.4049 14.6162C47.0826 14.8994 46.692 15.1094 46.233 15.2461C45.7838 15.373 45.2906 15.4365 44.7535 15.4365C44.1188 15.4365 43.5572 15.3096 43.0689 15.0557C42.5807 14.8018 42.1705 14.4551 41.8385 14.0156C41.5162 13.5762 41.2672 13.0635 41.0914 12.4775C40.9254 11.8818 40.8375 11.2373 40.8277 10.5439V8.40527C40.8375 7.73145 40.9254 7.10156 41.0914 6.51562C41.2672 5.91992 41.5211 5.40234 41.8531 4.96289C42.1852 4.52344 42.5904 4.17676 43.0689 3.92285C43.5572 3.65918 44.1139 3.52734 44.7389 3.52734C45.3443 3.52734 45.8766 3.60547 46.3355 3.76172C46.7945 3.91797 47.1852 4.14746 47.5074 4.4502C47.7906 4.72363 48.0104 5.05078 48.1666 5.43164C48.3326 5.80273 48.4352 6.23242 48.4742 6.7207H52.0045C51.9068 5.75391 51.6627 4.89941 51.2721 4.15723C50.8814 3.40527 50.3736 2.77051 49.7486 2.25293C49.1236 1.74512 48.3863 1.35938 47.5367 1.0957C46.6871 0.832031 45.7545 0.700195 44.7389 0.700195C43.6549 0.700195 42.6588 0.895508 41.7506 1.28613C40.8521 1.66699 40.0758 2.2041 39.4215 2.89746C38.7574 3.59082 38.2398 4.40625 37.8688 5.34375C37.5074 6.28125 37.3268 7.30664 37.3268 8.41992V10.5439C37.3268 11.6377 37.5025 12.6533 37.8541 13.5908C38.2154 14.5283 38.7184 15.3438 39.3629 16.0371C40.0074 16.7207 40.7838 17.2578 41.692 17.6484C42.61 18.0391 43.6305 18.2344 44.7535 18.2344C45.691 18.2344 46.5797 18.1123 47.4195 17.8682C48.2691 17.624 49.0162 17.2578 49.6607 16.7695C50.3053 16.2715 50.8326 15.6514 51.2428 14.9092C51.6529 14.167 51.8971 13.293 51.9752 12.2871ZM69.6664 18V0.93457H66.224L66.268 12.2725L60.3646 0.93457H56.9516V18H60.3793L60.3354 6.67676L66.268 18H69.6664ZM89.174 10.5146V8.44922C89.1643 7.39453 88.9885 6.39844 88.6467 5.46094C88.3147 4.51367 87.8361 3.68359 87.2111 2.9707C86.5764 2.27734 85.8049 1.72559 84.8967 1.31543C83.9982 0.905273 82.9826 0.700195 81.8498 0.700195C80.7072 0.700195 79.6867 0.905273 78.7883 1.31543C77.8898 1.72559 77.1281 2.28223 76.5031 2.98535C75.8684 3.69824 75.385 4.52344 75.0529 5.46094C74.7209 6.39844 74.5549 7.39453 74.5549 8.44922V10.5146C74.5549 11.5693 74.7209 12.5654 75.0529 13.5029C75.3947 14.4404 75.883 15.2559 76.5178 15.9492C77.1428 16.6523 77.9045 17.209 78.8029 17.6191C79.7111 18.0293 80.7365 18.2344 81.8791 18.2344C83.0119 18.2344 84.0275 18.0293 84.926 17.6191C85.8244 17.209 86.5861 16.6572 87.2111 15.9639C87.8459 15.2607 88.3293 14.4404 88.6613 13.5029C88.9934 12.5654 89.1643 11.5693 89.174 10.5146ZM85.673 8.41992V10.5146C85.6633 11.1396 85.5852 11.75 85.4387 12.3457C85.2922 12.9316 85.0676 13.4541 84.7648 13.9131C84.4621 14.3721 84.0715 14.7432 83.593 15.0264C83.1145 15.2998 82.5432 15.4365 81.8791 15.4365C81.1955 15.4365 80.6145 15.2998 80.1359 15.0264C79.6574 14.7432 79.2668 14.3721 78.9641 13.9131C78.6516 13.4541 78.4221 12.9316 78.2756 12.3457C78.1389 11.75 78.0656 11.1396 78.0559 10.5146V8.41992C78.0656 7.80469 78.1389 7.2041 78.2756 6.61816C78.4123 6.02246 78.6369 5.49512 78.9494 5.03613C79.2522 4.58691 79.6379 4.22559 80.1066 3.95215C80.5852 3.66895 81.1662 3.52734 81.8498 3.52734C82.5139 3.52734 83.0852 3.66406 83.5637 3.9375C84.0422 4.21094 84.4377 4.57715 84.7502 5.03613C85.0627 5.48535 85.2922 6.00781 85.4387 6.60352C85.5852 7.18945 85.6633 7.79492 85.673 8.41992ZM97.5781 15.1875V0.93457H93.9893V18H107.715V15.1875H97.5781ZM126.109 10.5146V8.44922C126.099 7.39453 125.924 6.39844 125.582 5.46094C125.25 4.51367 124.771 3.68359 124.146 2.9707C123.512 2.27734 122.74 1.72559 121.832 1.31543C120.933 0.905273 119.918 0.700195 118.785 0.700195C117.642 0.700195 116.622 0.905273 115.723 1.31543C114.825 1.72559 114.063 2.28223 113.438 2.98535C112.804 3.69824 112.32 4.52344 111.988 5.46094C111.656 6.39844 111.49 7.39453 111.49 8.44922V10.5146C111.49 11.5693 111.656 12.5654 111.988 13.5029C112.33 14.4404 112.818 15.2559 113.453 15.9492C114.078 16.6523 114.84 17.209 115.738 17.6191C116.646 18.0293 117.672 18.2344 118.814 18.2344C119.947 18.2344 120.963 18.0293 121.861 17.6191C122.76 17.209 123.521 16.6572 124.146 15.9639C124.781 15.2607 125.264 14.4404 125.596 13.5029C125.929 12.5654 126.099 11.5693 126.109 10.5146ZM122.608 8.41992V10.5146C122.598 11.1396 122.52 11.75 122.374 12.3457C122.227 12.9316 122.003 13.4541 121.7 13.9131C121.397 14.3721 121.007 14.7432 120.528 15.0264C120.05 15.2998 119.478 15.4365 118.814 15.4365C118.131 15.4365 117.55 15.2998 117.071 15.0264C116.593 14.7432 116.202 14.3721 115.899 13.9131C115.587 13.4541 115.357 12.9316 115.211 12.3457C115.074 11.75 115.001 11.1396 114.991 10.5146V8.41992C115.001 7.80469 115.074 7.2041 115.211 6.61816C115.347 6.02246 115.572 5.49512 115.885 5.03613C116.187 4.58691 116.573 4.22559 117.042 3.95215C117.52 3.66895 118.101 3.52734 118.785 3.52734C119.449 3.52734 120.02 3.66406 120.499 3.9375C120.977 4.21094 121.373 4.57715 121.685 5.03613C121.998 5.48535 122.227 6.00781 122.374 6.60352C122.52 7.18945 122.598 7.79492 122.608 8.41992ZM144.445 15.832V8.94727H137.384V11.584H140.944L140.929 14.6309C140.763 14.7773 140.558 14.9043 140.314 15.0117C140.07 15.1094 139.801 15.1924 139.508 15.2607C139.215 15.3193 138.903 15.3633 138.571 15.3926C138.249 15.4219 137.921 15.4365 137.589 15.4365C136.867 15.4365 136.237 15.3047 135.7 15.041C135.163 14.7773 134.723 14.4209 134.381 13.9717C134.04 13.542 133.781 13.0342 133.605 12.4482C133.439 11.8525 133.351 11.2275 133.341 10.5732V8.36133C133.351 7.69727 133.444 7.07227 133.62 6.48633C133.805 5.90039 134.074 5.3877 134.425 4.94824C134.757 4.50879 135.172 4.16211 135.671 3.9082C136.169 3.6543 136.735 3.52734 137.37 3.52734C137.897 3.52734 138.376 3.58594 138.805 3.70312C139.245 3.82031 139.621 4.00586 139.933 4.25977C140.226 4.48438 140.461 4.76758 140.636 5.10938C140.812 5.45117 140.924 5.86133 140.973 6.33984H144.401C144.333 5.46094 144.123 4.6748 143.771 3.98145C143.429 3.27832 142.956 2.6875 142.35 2.20898C141.745 1.7207 141.017 1.34961 140.168 1.0957C139.318 0.832031 138.361 0.700195 137.296 0.700195C136.193 0.700195 135.182 0.895508 134.264 1.28613C133.356 1.66699 132.575 2.19922 131.921 2.88281C131.266 3.56641 130.754 4.37695 130.382 5.31445C130.021 6.25195 129.84 7.27734 129.84 8.39062V10.5732C129.84 11.6768 130.021 12.6973 130.382 13.6348C130.744 14.5723 131.252 15.3828 131.906 16.0664C132.56 16.75 133.356 17.2822 134.294 17.6631C135.231 18.0439 136.291 18.2344 137.472 18.2344C138.224 18.2344 138.952 18.1758 139.655 18.0586C140.358 17.9512 141.012 17.7949 141.618 17.5898C142.213 17.3848 142.751 17.1357 143.229 16.8428C143.717 16.54 144.123 16.2031 144.445 15.832ZM149.788 0.949219V3.86426H154.036V15.0996H149.788V18H161.916V15.0996H157.551V3.86426H161.916V0.949219H149.788ZM177.718 14.4111L179.095 18H182.64L175.843 0.93457H172.532L165.721 18H169.295L170.657 14.4111H177.718ZM171.654 11.7451L173.939 5.70996L174.173 5.09473L174.422 5.72461L176.707 11.7451H171.654ZM196.405 13.4883C196.396 13.8203 196.298 14.1182 196.112 14.3818C195.937 14.6455 195.697 14.8652 195.395 15.041C195.082 15.2168 194.721 15.3535 194.311 15.4512C193.91 15.5391 193.485 15.583 193.036 15.583C192.538 15.583 192.055 15.5391 191.586 15.4512C191.127 15.3535 190.722 15.1924 190.37 14.9678C190.009 14.7529 189.721 14.4648 189.506 14.1035C189.291 13.7422 189.179 13.2979 189.169 12.7705H185.639C185.658 13.4053 185.756 13.9766 185.932 14.4844C186.117 14.9824 186.361 15.4219 186.664 15.8027C186.947 16.1641 187.279 16.4814 187.66 16.7549C188.041 17.0186 188.456 17.2383 188.905 17.4141C189.501 17.707 190.146 17.917 190.839 18.0439C191.532 18.1709 192.226 18.2344 192.919 18.2344C193.827 18.2344 194.701 18.1416 195.541 17.9561C196.381 17.7607 197.128 17.4629 197.782 17.0625C198.388 16.6719 198.876 16.1787 199.247 15.583C199.618 14.9775 199.804 14.2549 199.804 13.415C199.804 12.5654 199.638 11.8477 199.306 11.2617C198.974 10.666 198.524 10.1582 197.958 9.73828C197.382 9.32812 196.708 8.98633 195.937 8.71289C195.165 8.42969 194.345 8.18066 193.476 7.96582C192.919 7.83887 192.372 7.69238 191.835 7.52637C191.308 7.36035 190.863 7.16992 190.502 6.95508C190.229 6.78906 190.014 6.58887 189.857 6.35449C189.711 6.11035 189.638 5.81738 189.638 5.47559C189.638 5.14355 189.726 4.8457 189.901 4.58203C190.077 4.31836 190.316 4.09863 190.619 3.92285C190.912 3.74707 191.254 3.61523 191.645 3.52734C192.035 3.42969 192.445 3.38086 192.875 3.38086C193.314 3.38086 193.734 3.43945 194.135 3.55664C194.535 3.67383 194.892 3.83984 195.204 4.05469C195.517 4.2793 195.761 4.55762 195.937 4.88965C196.122 5.21191 196.22 5.58301 196.229 6.00293H199.745C199.706 5.0752 199.496 4.27441 199.115 3.60059C198.744 2.92676 198.251 2.375 197.636 1.94531C197.011 1.51563 196.288 1.20312 195.468 1.00781C194.647 0.802734 193.783 0.700195 192.875 0.700195C192.045 0.700195 191.239 0.797852 190.458 0.993164C189.677 1.18848 188.988 1.47656 188.393 1.85742C187.738 2.26758 187.216 2.78516 186.825 3.41016C186.444 4.02539 186.254 4.74805 186.254 5.57812C186.254 6.41797 186.415 7.12598 186.737 7.70215C187.069 8.27832 187.523 8.7666 188.1 9.16699C188.676 9.55762 189.35 9.88477 190.121 10.1484C190.893 10.4121 191.713 10.6514 192.582 10.8662C193.129 11.0029 193.666 11.1543 194.193 11.3203C194.73 11.4766 195.165 11.6719 195.497 11.9062C195.81 12.1309 196.039 12.3652 196.186 12.6094C196.332 12.8438 196.405 13.1367 196.405 13.4883Z" fill="#EFEFEF"/>
</svg>
