<svg width="267" height="50" viewBox="0 0 267 50" fill="none" xmlns="http://www.w3.org/2000/svg">
<path d="M48.9482 20.7764V17.9346H33.2891V20.7764H39.3096V35H42.8545V20.7764H48.9482ZM64.7938 27.5732V24.7314H56.5906V20.7764H66.1268V17.9346H53.0604V35H66.1121V32.1875H56.5906V27.5732H64.7938ZM84.9752 29.2871H81.4742C81.4352 29.8242 81.3229 30.2832 81.1373 30.6641C80.9518 31.0449 80.7076 31.3623 80.4049 31.6162C80.0826 31.8994 79.692 32.1094 79.233 32.2461C78.7838 32.373 78.2906 32.4365 77.7535 32.4365C77.1188 32.4365 76.5572 32.3096 76.0689 32.0557C75.5807 31.8018 75.1705 31.4551 74.8385 31.0156C74.5162 30.5762 74.2672 30.0635 74.0914 29.4775C73.9254 28.8818 73.8375 28.2373 73.8277 27.5439V25.4053C73.8375 24.7314 73.9254 24.1016 74.0914 23.5156C74.2672 22.9199 74.5211 22.4023 74.8531 21.9629C75.1852 21.5234 75.5904 21.1768 76.0689 20.9229C76.5572 20.6592 77.1139 20.5273 77.7389 20.5273C78.3443 20.5273 78.8766 20.6055 79.3355 20.7617C79.7945 20.918 80.1852 21.1475 80.5074 21.4502C80.7906 21.7236 81.0104 22.0508 81.1666 22.4316C81.3326 22.8027 81.4352 23.2324 81.4742 23.7207H85.0045C84.9068 22.7539 84.6627 21.8994 84.2721 21.1572C83.8814 20.4053 83.3736 19.7705 82.7486 19.2529C82.1236 18.7451 81.3863 18.3594 80.5367 18.0957C79.6871 17.832 78.7545 17.7002 77.7389 17.7002C76.6549 17.7002 75.6588 17.8955 74.7506 18.2861C73.8521 18.667 73.0758 19.2041 72.4215 19.8975C71.7574 20.5908 71.2398 21.4062 70.8688 22.3438C70.5074 23.2812 70.3268 24.3066 70.3268 25.4199V27.5439C70.3268 28.6377 70.5025 29.6533 70.8541 30.5908C71.2154 31.5283 71.7184 32.3438 72.3629 33.0371C73.0074 33.7207 73.7838 34.2578 74.692 34.6484C75.61 35.0391 76.6305 35.2344 77.7535 35.2344C78.691 35.2344 79.5797 35.1123 80.4195 34.8682C81.2691 34.624 82.0162 34.2578 82.6607 33.7695C83.3053 33.2715 83.8326 32.6514 84.2428 31.9092C84.6529 31.167 84.8971 30.293 84.9752 29.2871ZM102.666 35V17.9346H99.224L99.268 29.2725L93.3646 17.9346H89.9516V35H93.3793L93.3354 23.6768L99.268 35H102.666ZM122.174 27.5146V25.4492C122.164 24.3945 121.988 23.3984 121.647 22.4609C121.315 21.5137 120.836 20.6836 120.211 19.9707C119.576 19.2773 118.805 18.7256 117.897 18.3154C116.998 17.9053 115.983 17.7002 114.85 17.7002C113.707 17.7002 112.687 17.9053 111.788 18.3154C110.89 18.7256 110.128 19.2822 109.503 19.9854C108.868 20.6982 108.385 21.5234 108.053 22.4609C107.721 23.3984 107.555 24.3945 107.555 25.4492V27.5146C107.555 28.5693 107.721 29.5654 108.053 30.5029C108.395 31.4404 108.883 32.2559 109.518 32.9492C110.143 33.6523 110.904 34.209 111.803 34.6191C112.711 35.0293 113.737 35.2344 114.879 35.2344C116.012 35.2344 117.028 35.0293 117.926 34.6191C118.824 34.209 119.586 33.6572 120.211 32.9639C120.846 32.2607 121.329 31.4404 121.661 30.5029C121.993 29.5654 122.164 28.5693 122.174 27.5146ZM118.673 25.4199V27.5146C118.663 28.1396 118.585 28.75 118.439 29.3457C118.292 29.9316 118.068 30.4541 117.765 30.9131C117.462 31.3721 117.071 31.7432 116.593 32.0264C116.114 32.2998 115.543 32.4365 114.879 32.4365C114.196 32.4365 113.614 32.2998 113.136 32.0264C112.657 31.7432 112.267 31.3721 111.964 30.9131C111.652 30.4541 111.422 29.9316 111.276 29.3457C111.139 28.75 111.066 28.1396 111.056 27.5146V25.4199C111.066 24.8047 111.139 24.2041 111.276 23.6182C111.412 23.0225 111.637 22.4951 111.949 22.0361C112.252 21.5869 112.638 21.2256 113.107 20.9521C113.585 20.6689 114.166 20.5273 114.85 20.5273C115.514 20.5273 116.085 20.6641 116.564 20.9375C117.042 21.2109 117.438 21.5771 117.75 22.0361C118.063 22.4854 118.292 23.0078 118.439 23.6035C118.585 24.1895 118.663 24.7949 118.673 25.4199ZM130.578 32.1875V17.9346H126.989V35H140.715V32.1875H130.578ZM159.109 27.5146V25.4492C159.099 24.3945 158.924 23.3984 158.582 22.4609C158.25 21.5137 157.771 20.6836 157.146 19.9707C156.512 19.2773 155.74 18.7256 154.832 18.3154C153.933 17.9053 152.918 17.7002 151.785 17.7002C150.642 17.7002 149.622 17.9053 148.723 18.3154C147.825 18.7256 147.063 19.2822 146.438 19.9854C145.804 20.6982 145.32 21.5234 144.988 22.4609C144.656 23.3984 144.49 24.3945 144.49 25.4492V27.5146C144.49 28.5693 144.656 29.5654 144.988 30.5029C145.33 31.4404 145.818 32.2559 146.453 32.9492C147.078 33.6523 147.84 34.209 148.738 34.6191C149.646 35.0293 150.672 35.2344 151.814 35.2344C152.947 35.2344 153.963 35.0293 154.861 34.6191C155.76 34.209 156.521 33.6572 157.146 32.9639C157.781 32.2607 158.264 31.4404 158.596 30.5029C158.929 29.5654 159.099 28.5693 159.109 27.5146ZM155.608 25.4199V27.5146C155.598 28.1396 155.52 28.75 155.374 29.3457C155.227 29.9316 155.003 30.4541 154.7 30.9131C154.397 31.3721 154.007 31.7432 153.528 32.0264C153.05 32.2998 152.478 32.4365 151.814 32.4365C151.131 32.4365 150.55 32.2998 150.071 32.0264C149.593 31.7432 149.202 31.3721 148.899 30.9131C148.587 30.4541 148.357 29.9316 148.211 29.3457C148.074 28.75 148.001 28.1396 147.991 27.5146V25.4199C148.001 24.8047 148.074 24.2041 148.211 23.6182C148.347 23.0225 148.572 22.4951 148.885 22.0361C149.187 21.5869 149.573 21.2256 150.042 20.9521C150.52 20.6689 151.101 20.5273 151.785 20.5273C152.449 20.5273 153.02 20.6641 153.499 20.9375C153.977 21.2109 154.373 21.5771 154.685 22.0361C154.998 22.4854 155.227 23.0078 155.374 23.6035C155.52 24.1895 155.598 24.7949 155.608 25.4199ZM177.445 32.832V25.9473H170.384V28.584H173.944L173.929 31.6309C173.763 31.7773 173.558 31.9043 173.314 32.0117C173.07 32.1094 172.801 32.1924 172.508 32.2607C172.215 32.3193 171.903 32.3633 171.571 32.3926C171.249 32.4219 170.921 32.4365 170.589 32.4365C169.867 32.4365 169.237 32.3047 168.7 32.041C168.163 31.7773 167.723 31.4209 167.381 30.9717C167.04 30.542 166.781 30.0342 166.605 29.4482C166.439 28.8525 166.351 28.2275 166.341 27.5732V25.3613C166.351 24.6973 166.444 24.0723 166.62 23.4863C166.805 22.9004 167.074 22.3877 167.425 21.9482C167.757 21.5088 168.172 21.1621 168.671 20.9082C169.169 20.6543 169.735 20.5273 170.37 20.5273C170.897 20.5273 171.376 20.5859 171.805 20.7031C172.245 20.8203 172.621 21.0059 172.933 21.2598C173.226 21.4844 173.461 21.7676 173.636 22.1094C173.812 22.4512 173.924 22.8613 173.973 23.3398H177.401C177.333 22.4609 177.123 21.6748 176.771 20.9814C176.429 20.2783 175.956 19.6875 175.35 19.209C174.745 18.7207 174.017 18.3496 173.168 18.0957C172.318 17.832 171.361 17.7002 170.296 17.7002C169.193 17.7002 168.182 17.8955 167.264 18.2861C166.356 18.667 165.575 19.1992 164.921 19.8828C164.266 20.5664 163.754 21.377 163.382 22.3145C163.021 23.252 162.84 24.2773 162.84 25.3906V27.5732C162.84 28.6768 163.021 29.6973 163.382 30.6348C163.744 31.5723 164.252 32.3828 164.906 33.0664C165.56 33.75 166.356 34.2822 167.294 34.6631C168.231 35.0439 169.291 35.2344 170.472 35.2344C171.224 35.2344 171.952 35.1758 172.655 35.0586C173.358 34.9512 174.012 34.7949 174.618 34.5898C175.213 34.3848 175.751 34.1357 176.229 33.8428C176.717 33.54 177.123 33.2031 177.445 32.832ZM182.788 17.9492V20.8643H187.036V32.0996H182.788V35H194.916V32.0996H190.551V20.8643H194.916V17.9492H182.788ZM210.718 31.4111L212.095 35H215.64L208.843 17.9346H205.532L198.721 35H202.295L203.657 31.4111H210.718ZM204.654 28.7451L206.939 22.71L207.173 22.0947L207.422 22.7246L209.707 28.7451H204.654ZM229.405 30.4883C229.396 30.8203 229.298 31.1182 229.112 31.3818C228.937 31.6455 228.697 31.8652 228.395 32.041C228.082 32.2168 227.721 32.3535 227.311 32.4512C226.91 32.5391 226.485 32.583 226.036 32.583C225.538 32.583 225.055 32.5391 224.586 32.4512C224.127 32.3535 223.722 32.1924 223.37 31.9678C223.009 31.7529 222.721 31.4648 222.506 31.1035C222.291 30.7422 222.179 30.2979 222.169 29.7705H218.639C218.658 30.4053 218.756 30.9766 218.932 31.4844C219.117 31.9824 219.361 32.4219 219.664 32.8027C219.947 33.1641 220.279 33.4814 220.66 33.7549C221.041 34.0186 221.456 34.2383 221.905 34.4141C222.501 34.707 223.146 34.917 223.839 35.0439C224.532 35.1709 225.226 35.2344 225.919 35.2344C226.827 35.2344 227.701 35.1416 228.541 34.9561C229.381 34.7607 230.128 34.4629 230.782 34.0625C231.388 33.6719 231.876 33.1787 232.247 32.583C232.618 31.9775 232.804 31.2549 232.804 30.415C232.804 29.5654 232.638 28.8477 232.306 28.2617C231.974 27.666 231.524 27.1582 230.958 26.7383C230.382 26.3281 229.708 25.9863 228.937 25.7129C228.165 25.4297 227.345 25.1807 226.476 24.9658C225.919 24.8389 225.372 24.6924 224.835 24.5264C224.308 24.3604 223.863 24.1699 223.502 23.9551C223.229 23.7891 223.014 23.5889 222.857 23.3545C222.711 23.1104 222.638 22.8174 222.638 22.4756C222.638 22.1436 222.726 21.8457 222.901 21.582C223.077 21.3184 223.316 21.0986 223.619 20.9229C223.912 20.7471 224.254 20.6152 224.645 20.5273C225.035 20.4297 225.445 20.3809 225.875 20.3809C226.314 20.3809 226.734 20.4395 227.135 20.5566C227.535 20.6738 227.892 20.8398 228.204 21.0547C228.517 21.2793 228.761 21.5576 228.937 21.8896C229.122 22.2119 229.22 22.583 229.229 23.0029H232.745C232.706 22.0752 232.496 21.2744 232.115 20.6006C231.744 19.9268 231.251 19.375 230.636 18.9453C230.011 18.5156 229.288 18.2031 228.468 18.0078C227.647 17.8027 226.783 17.7002 225.875 17.7002C225.045 17.7002 224.239 17.7979 223.458 17.9932C222.677 18.1885 221.988 18.4766 221.393 18.8574C220.738 19.2676 220.216 19.7852 219.825 20.4102C219.444 21.0254 219.254 21.748 219.254 22.5781C219.254 23.418 219.415 24.126 219.737 24.7021C220.069 25.2783 220.523 25.7666 221.1 26.167C221.676 26.5576 222.35 26.8848 223.121 27.1484C223.893 27.4121 224.713 27.6514 225.582 27.8662C226.129 28.0029 226.666 28.1543 227.193 28.3203C227.73 28.4766 228.165 28.6719 228.497 28.9062C228.81 29.1309 229.039 29.3652 229.186 29.6094C229.332 29.8438 229.405 30.1367 229.405 30.4883Z" fill="#EFEFEF"/>
<rect x="1.5" y="1.5" width="264" height="47" stroke="url(#paint0_linear_508_155)" stroke-width="3"/>
<defs>
<linearGradient id="paint0_linear_508_155" x1="133.5" y1="0" x2="133.5" y2="50" gradientUnits="userSpaceOnUse">
<stop stop-color="#E02319"/>
<stop offset="1" stop-color="#D0130A"/>
</linearGradient>
</defs>
</svg>
